<svg id="Layer_1" data-name="Layer 1" xmlns="http://www.w3.org/2000/svg" viewBox="0 0 512 512"><defs><style>.cls-1{fill:#707070;}</style></defs><title>wallet-handdrawn</title><path class="cls-1" d="M511.9,244.39c-.06-8.89-.12-17.69-.19-26.66l-.14-90.86A63.63,63.63,0,0,0,452.06,66c-8.2-.4-16.4-.14-24.07-.2-13.48,0-22.77.06-28.72,0l0,.06c-4.15-.12-7.8,0-10.9-.06l-11.21,0c-5.34,0-6.62-.13-5-.3,6-.64-26.72-.7-49.47-.87L133.59,63.8l-39-.12c-6.6,0-13-.11-19.81,0a63.27,63.27,0,0,0-20.51,3.8C41,72.07,29.72,81.23,21.87,92.39a70.49,70.49,0,0,0-8.79,18.27,71.18,71.18,0,0,0-2.88,19.62c0,9.49,0,21.89,0,33,.05,45.36.1,88.61.15,135.6,0,6.07.13,20.71.26,24.17.23,6.61.49,8,.78,12.07,0,9,.07,19.59.12,32.22l.25-10.24c0,6.56,0,12.87-.06,19s.56,12.6,2.34,18.39a64.07,64.07,0,0,0,17.84,29.74,67.72,67.72,0,0,0,13.72,10,66.56,66.56,0,0,0,16,6,71.69,71.69,0,0,0,8.59,1.42c2.9.11,5.94.35,8.74.27l17.53-.08,4.09.38,52.7-.06L141.56,442c.7-.33,6.55-.62.07-.83-5.13-.16-25-.28-39.18-.3-15.22,0-21.71,0-26.1-.3a81.38,81.38,0,0,1-14.53-2A61.44,61.44,0,0,1,42,429.71a58.65,58.65,0,0,1-12.24-11.08,25.33,25.33,0,0,1-3.44-4.86c-.73-1.41.72.08.35-.85-.25-.65.9.58,1.59,1.07,1.15,1.36,6,8.74,19.09,16.21a59.32,59.32,0,0,1-16.53-13.69,61.82,61.82,0,0,1-10.2-17.05,15.84,15.84,0,0,0,.64,2.35c-2.86-5.79-4.74-15.35-4.9-17.93-.35-5-.22-10.2-.1-15.47s.19-10.47.28-15.54l.6-27.38c.28-10.35.59-4.25.85,8.8.09,6.53.2,14.79.32,23.6,0,4.41.07,9,.1,13.49a110.09,110.09,0,0,0,.53,12.92c2.28,20.6,17,39.35,36.57,46.86a59,59,0,0,0,15.19,3.7c5.07.37,10.81.29,16.41.29h33.59l56.24-.11-89.71-.23.06-.15,29.8-.07c19.56,0,34.08,0,46.27-.33,11.2-.27,29.61-.3,54.79-.26,30.39.06,72.27.34,93.92-.26,8.14-.23,1.32-.57,1.32-.85h85.16l-41-2.12,17-.14c-50.74-.2-25.56-1.13-67.07-1.45l40.28-.33c-13.24-.29-28.92-.5-21.24-1,6-.36-19.07-.83-27.35-1.27-3.34-.18,3.45-.39,1.61-.58a122.73,122.73,0,0,0-14.06-.65c-21.46-.1-31.54-.82-65.37-.31l-15.94,0L123.93,425,83.5,425c-7.42.06-12,0-17.23-1a47.22,47.22,0,0,1-14.62-5.8A49.17,49.17,0,0,1,36.52,404a48.56,48.56,0,0,1-7.72-20.16,41.12,41.12,0,0,1-.46-5.5c-.13-1.77,0-4.59-.07-6.84v-14.3c0-9.53,0-19,0-28.33.08-44.13.17-87.74.25-131.88q0-19.1,0-38.25V130a54.4,54.4,0,0,1,.58-7.48C31.72,103,48,85.77,67.56,82.49a43.08,43.08,0,0,1,5.81-.69l3-.17h3.85l14,.06c49.5.43,113.48.26,152.87-.29L318,81l-2.4.19c8.07.24,12.35.62,25.05.7l38.8.09L399,82a49.37,49.37,0,0,1,14.87,2.41A48.16,48.16,0,0,1,425,89.66a52.45,52.45,0,0,1,10.92,9.91,48.68,48.68,0,0,1,10.76,30.59c.16-2.2.38-3.87.46-6.29.23,2,.22,3.86.37,5.73q0,3.45,0,6.6c0,4.19,0,8,0,11.39,0,1.72,0,3.29,0,4.81-3.86-.1-8.38-.12-15,.11l-7,0-17.94-.13-8.87,0-10.24.51a97.47,97.47,0,0,0-39.09,12.63,103.09,103.09,0,0,0-39.33,39.95c-10.53,19.71-14.92,42.73-10.92,64.9a101,101,0,0,0,40.19,64.48,56.89,56.89,0,0,0,6.46,4.34c2.23,1.31,4.25,2.76,6.11,3.6a95.59,95.59,0,0,0,39,11.37c7.31.47,12.77.26,18.18.19l14.67-.34c6-.19,16.15-.24,25.46-.31,0,9,0,17.75.06,26a46,46,0,0,1-3.25,15.69,52.17,52.17,0,0,1-10.13,16.27,51.31,51.31,0,0,1-25.78,15.52,49,49,0,0,0,16.66-6.66,55.33,55.33,0,0,1-20.14,8.37c-1.46.34-1.63.48-.15.38a38,38,0,0,0,9.52-2c4.48-1.5-.46.55.54.38,1.3-.31,4.44-.72,11.56-5a53.32,53.32,0,0,0,24.19-35.44l.7-4.35.27-4.44c.17-3,.12-6.59.21-9.75l.38-14.92c1.88.13,3.35.3,5.14.44q0,6.81,0,13.61c0,7.81.18,15.42-1.59,22.74a60,60,0,0,1-8.93,20.43,62.18,62.18,0,0,1-22.29,19.74,59.2,59.2,0,0,1-18.28,6.13c-9.28,1.27-11.73,1.17-7.14,1.44a70.45,70.45,0,0,0,16.18-1,65,65,0,0,0,10.51-4.47h20.62L429.19,432A68.49,68.49,0,0,0,441,423.79c4.59-4,6.09-6,4.32-3.45A62.72,62.72,0,0,0,462.1,380.8c.23-8.9.23-17.63.22-26.34.76,0,1.47.06,2.41.07l17,.09,17.11-.23c.05,6.76.11,13.41.19,19.77,0,1.05.07,2.59,0,3.8l-.19,4.08a57.13,57.13,0,0,1-1.88,9.64,51.65,51.65,0,0,1-9.59,18,54.05,54.05,0,0,1-12.45,11A46.84,46.84,0,0,1,460.44,427,50.53,50.53,0,0,0,478,419.44a56,56,0,0,1-21.21,9.41c-1.55.35-1.73.49-.16.38a38.51,38.51,0,0,0,10.09-2.29c4.77-1.59-.5.56.58.37a14.79,14.79,0,0,0,3.77-1.24,43.1,43.1,0,0,0,8.33-4.48,52.35,52.35,0,0,0,12.84-12.33,53.54,53.54,0,0,0,10.39-26.81l.26-4.69.07-5.29c0-3.57.1-7.12.14-10.55.17-6.87.32-13.29.45-18.55.34-10.49.74-16.23,1-11.29.75,14.35,1.46-27.1,1.42-82,0-30.42,0-61.11,0-91.42,0-6.59.19-13.58.31-17.79,0-3.73.48-10.57-.09-18a58.29,58.29,0,0,0-8.67-25,59.87,59.87,0,0,0-21.58-20.29,59,59,0,0,0-25.83-7c-6.22-.19-14.6,0-17.72,0l-9.21.2A63.09,63.09,0,0,0,413,67.57l18.9.12c9.65.24,18.82-.48,27.82,1.31a61.15,61.15,0,0,1,32.74,18.16,60.41,60.41,0,0,1,16.79,39.09c.28,14.2,0,28.2,0,41.91-.17,27.45-.34,54-.5,80.34,0,17.77-.09,41.76-.13,62.91,0,16.47-.05,33.05-.08,49.56-.14,8.23.34,16.61-.67,24.47A59.7,59.7,0,0,1,500,407.81a61.65,61.65,0,0,1-22.64,22.13,60.4,60.4,0,0,1-19.33,6.91c-4.91,1-8.08.86-9.34,1.16s-.7.31,1.74.36A66.62,66.62,0,0,0,467.66,437a66.2,66.2,0,0,0,25.09-15.22c4.57-4.64,6.13-6.7,4.38-3.93a64.83,64.83,0,0,0,14.71-43.19q0-22.57.05-44.94c0-29.84.07-59.47.11-89.1ZM99,428.57l60.29,0,35.86.08,21.54-.1,2.74.21-131.59.31-6.56-.16C87.13,428.81,92.17,428.58,99,428.57ZM16.74,118.4c-1.57,7.83-1,16.67-1.16,25.78s-.15,18.48-.23,27.83c0-14.18,0-26.2,0-38.21l0-.88c0,5.8-.06,11.6-.16,28.49,0-19.13-.43-30.23.1-36.76A60.42,60.42,0,0,1,32,88,63,63,0,0,0,16.74,118.4Zm439.4-.31a59.36,59.36,0,0,0-11.62-25.28A58.16,58.16,0,0,0,425,76.91c-5-2.84-12.25-4.58-15-5.12a76,76,0,0,0-11.62-.88l-9.28.1-28.69-.31L384.07,70c7.68-.17,15.13-.66,21.5-.22a29.13,29.13,0,0,0,5.52.3c-9.28-2.05-19.1-1.13-28.83-1.35H353.16l-19.36.16L92.66,68.67l-9.79-.06a6.25,6.25,0,0,1,1-.11l192.44-.15,59.2.07c39.08,0,50.26-.17,45.21-.93,10.84.25,20.56-.46,29.47,1.34A60.31,60.31,0,0,1,433.95,79.2,62.67,62.67,0,0,1,455.63,107c5.69,13.05,4,27.14,4.25,40.45,0,1.8,0,3.57,0,5.35l-3-.07c0-2.64.1-5.5.16-8.83l.14-12.47A72.12,72.12,0,0,0,456.14,118.09ZM376.8,158.5a58.36,58.36,0,0,1,7.2-1.35,53.51,53.51,0,0,1,7.36-.84l7.41-.33,6.62,0,15.69.08,9.42-.1,1.2.21-28.78.16a152.33,152.33,0,0,0-15.54.77l-7.95,1.27c-2.61.6-5.2,1.33-7.79,2a24.16,24.16,0,0,0-3.12.77A71.35,71.35,0,0,1,376.8,158.5ZM314.66,278.87c1,3,2,5.68,3,8.29l3.48,7.3.21.33-1.89-4a51.66,51.66,0,0,1-3-7.53,69.45,69.45,0,0,0,4.15,9.29,51,51,0,0,0,2.94,5.28l2.65,4.5,2.92,4.07a77.07,77.07,0,0,0,6.22,7.64C329.45,308.93,319.09,294.94,314.66,278.87ZM326.4,293.3a93.8,93.8,0,0,1-5.56-12.51,87.11,87.11,0,0,1-5-27.38,80.45,80.45,0,0,1,5-27.91c.72-2.44,3.16-8,3.75-9.35l1.75-4.82c1-1.6,2-3.44,3.25-5.3l4.39-5.95-2.8,3.31a87.74,87.74,0,0,1,21.69-20.24,82.64,82.64,0,0,1,25.85-11.45l1.76-.07c3.06-.72,6.23-1.07,9.76-1.63,3.61-.13,7.47-.55,12.5-.46-4.52-.16-6.29,0-5.08-.08.28-.36,2.82-.71,0-.83-1.1,0-3.77,0-6.93.15-3.15.27-6.76.86-9.75,1.35-6.35,1.55-9,2.35-10.84,2.83a47.64,47.64,0,0,0-5.9,2c-2.71,1.32-6.07,2.53-8.39,4-5.92,3.21-7.78,4.54-8.49,4.73s-.14-.55-.64-.51.13-.56.28-1c.35-.25,1.22-1,2.79-2.11l6.73-4.29a96.17,96.17,0,0,0-15.78,10.6l1-.49c-2.14,2-5.47,4.91-6.25,5.79-6.82,6.19-12.64,14.53-16.29,20.49-2.19,4.12-1.58,1.37,1.2-3.88A83.9,83.9,0,0,1,334,189.7a91.29,91.29,0,0,1,54.05-26.5c8.53-.86,16.58-.64,25-.76-6.64.07-12.85-.32-19.86.15A88.83,88.83,0,0,0,373,165.94v-.15l6.64-1.76c2.24-.48,4.51-.76,6.77-1.13,4.45-.8,8.41-.61,11.89-.95,3.35-.07,6.25-.14,8.92-.29,4.9-.27,13-.3,24-.26,13.29.06,31.61.34,41.08-.26,3.56-.23.58-.57.58-.85h26c-.06,27.77-.12,53.75-.17,79.15,0,33,0,67.36.15,99h-5.14c-12.82.09-16.46.07-15-.27,2.62-.64-11.69-.7-21.64-.87l-40.65-.51c-6.88-.14-14.07,0-20.82-.36l-5-.3c-1.67-.21-3.33-.53-5-.79a72.42,72.42,0,0,1-9.84-2.27C354.79,327.12,335.87,311.56,326.4,293.3ZM492.12,158.17l6.63-.13c0,.3,0,.61,0,.91ZM453.89,353.81c0-.05,0-.11,0-.16h.94Zm41.49-10.57c-9,.48-8.86.49-22,.06l19.86-1.36a5.16,5.16,0,0,0,2.48-.58H470.21l-8.47.16L409,341.4c-8.72-.1-17.73.24-26.5-1.61A90.6,90.6,0,0,1,357.38,331c-1.35-.65-2.5-1.52-3.71-2.25a1.33,1.33,0,0,1,.42.13,85.34,85.34,0,0,0,40.35,12c14.1.39,28.08.06,42.14.14l25.89.07c17.09,0,22-.17,19.78-.93l16.47.24c0,1,0,1.92,0,2.87ZM448.9,81.71a44.62,44.62,0,0,1,6.9.58,46.88,46.88,0,0,1,14.81,4.88A49.08,49.08,0,0,1,493.23,113a44.89,44.89,0,0,0-1.86-6.28A49.59,49.59,0,0,1,497,127c.25,2.54.15,6.38.21,9.09,0,2.87.06,5.39.08,7.58.11,8.77.26,12.37.42,13.18.33,1.62.73-7.94,1.09-9.71,0,3.69,0,7.23,0,10.85-21-.22-10.61-1.12-28.52-1.44l17.62-.33c-5.79-.29-12.65-.5-9.29-1,2.62-.36-8.34-.83-12-1.27-1.46-.18,1.51-.39.71-.58a23.35,23.35,0,0,0-5.15-.61v-4.74c-.06-7.14.14-14.15-.14-21.39a61.45,61.45,0,0,0-4.64-21.29,65,65,0,0,0-17-23.67h.83C443.52,81.73,446.54,81.63,448.9,81.71Zm-417,356.62c1.45,1.21-7.7-4.8-13.67-12.14A75.86,75.86,0,0,1,1.93,393.92c-.72-3.05-1.12-6.21-1.54-9.35l-.26-4.76C0,378.14,0,376.64,0,375.45q0-7.8,0-15.7c0-21.07.07-42.56.11-63.38,0-32,.2-36.17.61-20.83.12,4.6.31.83.47.88,0-11,0-26,0-32.23L.55,212.85c.11-16.4.23-32.43.34-48.23Q1,152.76,1,141.06l.09-11.7.4-7.06c.26-2.34.69-4.66,1.06-7,.59-2.92,1.47-6,2.23-8.55L7.06,101c2.73-5.59,3.37-6.21,2.13-3.29A79.87,79.87,0,0,0,3.6,117.1a58.37,58.37,0,0,0-.78,7.84l-.15,4.28q0,1.86,0,3.81c.05,5.14.11,10.72.18,16.6,0,11.76.1,24.73.15,37.84.07,57.78.13,116,.2,173.36,0,6,0,11.33,0,16l.35,7.63L4.55,391A91.68,91.68,0,0,0,9.25,407,77.3,77.3,0,0,0,31.89,438.33ZM55.37,63.57c-2.18.67.23-.52,5-1.76a62.91,62.91,0,0,1,13.07-2c4.94-.36,9-.24,13.28-.38,8.34-.16,15.37-.32,16.94-.5,6.45-.72,43.09-.49,68.07-.62,21.22-.1,33.34.05,41.7.38,8.73.34,22.35.67,38.1.95l35.74.11c20.41-.26,40.88-.28,60.41-.25l28.45.08,13.45,0c4.48.05,8.38-.12,13.3.22-4.56-.12-8.05.18-11.68.32l-10.06.51-18.64,1.11-73.55,0c-34.11.15-56.75-.12-84.45-.26l-63.69-.27L107.56,61l-17-.06-8.64,0c-2.9,0-5.7-.08-9.06.14C68.74,60.83,60.11,62.34,55.37,63.57ZM327.94,451.28c39.61.61,22.08,1.65-27.41,2.1-52.65.49-109.06.25-163.48.36H93.13l-4.88-.18,138-1.87,8.47.1-8.46-.45,75.37-.24Zm29-257.26c-11.14,8.38-22.07,21.25-26.82,35.79-3.43,11.13-3.36,12.77-2.71,7.15.31-1.66-.23-.37-.38-.42a48.49,48.49,0,0,0-1.23,6.5,25.15,25.15,0,0,0-.52,5.28,66.15,66.15,0,0,0,.68,11.55,73.24,73.24,0,0,0,10.7,33c.83,1.63,2.12,3.21,2.48,3.87,2.08,3.23-.15,1.47-3.81-3.61s-8.26-13.84-10.38-23.58c-5-21.48.49-45,13.87-62.29,5.64-7.27,9.71-10.24,11.32-11.38a56.93,56.93,0,0,1,11.2-5.22C361.93,190.57,359.13,192.25,356.95,194Zm22.15,137.26a78.34,78.34,0,0,1-24.83-11.2c-1.16-.92-3.51-3.09-4.77-4.31-.58-.58.29-.14,1.75.82,4.34,3.29,13.36,7.53,14.64,7.64,1.24.35,5.23,1.75,10.08,3.37,2.5.56,5.16,1.4,7.86,1.9,2.73.34,5.4.93,7.84,1,8,.45,13.92.34,17.42.73,3.82.34,9.77.67,16.66.95,2.81.11,12.95.19,15.63.11,17.86-.51,35.82-.11,50.35-.13l-9.3,1-8.16,1.11-32.17,0c-14.92.15-24.82-.12-36.94-.26l-6.82-.08-6.41-.4a53.82,53.82,0,0,1-6.43-.89A38.37,38.37,0,0,1,379.09,331.27Zm1.29-147.69-1.77.27c2-.55,4-1.28,6.05-1.74l6.21-1.2,6.32-.57c2-.23,4.89-.2,7.3-.31l30.17-.94,3.71.1-3.7-.45,33-.24c3.62,0,8.74.08,11.52.17,17.33.61,9.66,1.65-12,2.1-11.52.24-23.44.31-35.46.32H404.63c-2.92,0-6.24-.05-8.48.16a55.4,55.4,0,0,0-7.91.72l-4,.59ZM412.13,291.1a36.24,36.24,0,0,0,7.76-3.86l-1.71.89c-.06-.35.6-1.09-.4-.73-.79.27-3.65,1.68-5.82,2.35-2.27.87-3.31,1-4,.94-.53,0-3.66.43-5.64.49-4.86-.17-3.24-.82-3.56-1.32-.1-.18.15-.38.27-.64.28-.06,1.55-.12,3.77-.49a34.66,34.66,0,0,1-6.22-.17l.34.35a15.61,15.61,0,0,1-2.79-.23,28.17,28.17,0,0,1-7.87-3.16c-2.48-1.58,3.56.33,8.28.72a33.84,33.84,0,0,0,17.77-2.8,27.07,27.07,0,0,0,6.45-4,32.91,32.91,0,0,1-10.79,5.33l0-.14c1.25-.44,2.5-.93,3.71-1.45a18.06,18.06,0,0,0,5.2-3.28c1-1.1,3-2.51,5.25-4.95,2.83-2.81,5.83-7.62,6.14-10.53.15-1.07-.48-.35-.74-.45a30.1,30.1,0,0,0,1.9-10.56,31.19,31.19,0,0,1-2.57,4.81l.16-2c-.5,2.94-1,3.59-1.44,4.09a10.34,10.34,0,0,0-1.76,3,30.5,30.5,0,0,0,1-4.34c-.67,1.35-1.25,2.91-1.5,2-.13-.68-1.46,1.63-2.16,2.21-.31.23-.2-.46-.46-.37a1.81,1.81,0,0,0-1.19,1c-1,1.8-2.08,2.21-3.73,5a8.21,8.21,0,0,1-1,1.13A27.53,27.53,0,0,1,401,276.38a20.82,20.82,0,0,1-10.53-1.18,23.77,23.77,0,0,1-15-20.73,11.73,11.73,0,0,1,.1-2.78,37.47,37.47,0,0,1,1.94-7.23,45.18,45.18,0,0,1,3.17-6.09,20.74,20.74,0,0,1,4.88-4.79l-.1.28a8,8,0,0,0,2.4-.61,59.17,59.17,0,0,1,6.85-2.47,18.72,18.72,0,0,1,7.36-.43l-.64-.93c4,.5,5.12.92,5.39.63s-.48-1-.54-1.37a27.08,27.08,0,0,1,8,4.46,33.1,33.1,0,0,1,8.4,10.36,25.42,25.42,0,0,1,1.4,4.39c.27,1.42.74,2.58.86,3.93a12.55,12.55,0,0,0,.21-2.42c.72,2.76,1,4.38,1.53,1.54.1-.66.36.05.54-.1s.46-.64.47-1.8a16.3,16.3,0,0,0-1.1-6c-1-3.06-2.2-6.89-1.15-6.17,1.51,1.25-.12-4-5.55-8.66a34.77,34.77,0,0,0-10-5.85c-.79-.29-1.56-.81-2.06-1a22.34,22.34,0,0,0-5.83-1.75,28.48,28.48,0,0,0-7.86-.05c-.83.15-1.9.35-2.3.48-2.69,1.18-2.61,1-6.68,2.13a44.27,44.27,0,0,1,5.73-3.24c.68-.36.48-.5.69-.74a35,35,0,0,0-8.15,2.66c-.87.46-1.7.93-2.47,1.42A35.94,35.94,0,0,0,362.64,251l-.14,1.44c0-.06-.1-.08-.1-.15a36,36,0,0,1,11.41-25.46,35.3,35.3,0,0,1,7.15-5.14c5.16-2.68,6.88-3,5.87-3.57a38.36,38.36,0,0,1,8.36-1.38,47.4,47.4,0,0,1,5.43.09,33.75,33.75,0,0,1,21,9.07,42.51,42.51,0,0,1,5.81,6.45,34.81,34.81,0,0,1,5.57,12.3,59,59,0,0,1,1.15,7.32c.21,1.4.47,1.77.8,1.08a26,26,0,0,1,1.52-2.54c-.26-3.63-.6-6,.12-5.24a39.29,39.29,0,0,0-13.84-22.58l.4.42-3.35-2.21a39,39,0,0,0-26-6c-1.18.2-2.44.3-3.54.58-4.54,1.16-5.69,1.89-5.35,1.31.7-1-4.39.76-7.58,2.77a39.62,39.62,0,0,0-18.55,24.36c-2.31,8.38-1.34,17.93,1.65,25.74a35.9,35.9,0,0,0,2.54,5c4,6.66,9.74,11.59,16.66,15.45a17.68,17.68,0,0,0,3.83,1.45,7.13,7.13,0,0,0,2.16,0,43.3,43.3,0,0,0,5.16,1.26,15.55,15.55,0,0,1-1.58-.62,36.4,36.4,0,0,0,11.45,1.19A35.78,35.78,0,0,0,411.37,291Zm-4.78-12.77a30.26,30.26,0,0,0,5.88-2.87,26.69,26.69,0,0,0,3.12-2.37,10.92,10.92,0,0,0,1.61-1.72l.35-.08a27,27,0,0,1-11.94,8l-.75,0C406.21,279,406.66,278.62,407.34,278.33Zm-40.18-6.55a26.5,26.5,0,0,1-2.57-4.87,34.36,34.36,0,0,1-1.51-6.62,65.4,65.4,0,0,0,5,12.76,36,36,0,0,1-2.67-5l-.1-.1A39.42,39.42,0,0,0,367.16,271.77Zm4.29,24.05c-2-1.18-4.34-3.16-5.39-3.91-2.21-1.72-3.79-2.82-5.11-4.08a50.45,50.45,0,0,1-9.68-17.14,22.25,22.25,0,0,1-.7-2.47c-.3-4.34,2.58,5.74,9,14A47.58,47.58,0,0,0,388,300.52c4.69.94,7.25,1.09,8.28,1.43,2.39.93,4.7,1.44,6.66,2.09.33.1-1.5.41-3.11.58-8,.86-17.55-1.62-25.29-5.74-5.88-3.38-6.34-4.22-3.47-2.74C371.92,296.53,371.36,296,371.45,295.83Zm-11.81-67c1.12-1.24,2.9-3.12,5-5.13.81-.89,3.92-3.8,4.77-4.56,5.42-5.36,12.83-8.24,18.78-9.61a33.5,33.5,0,0,0-3.47,2c-1,.76-1.85,1.45-2.74,2.19a42.25,42.25,0,0,0-11.07,6.69,50.31,50.31,0,0,0-9.77,11.22,42.86,42.86,0,0,0-6.38,22.29c-.11.65-.29,2.08-.5,2.9-.1.38-.29,0-.44-.84-.61-2.45-.54-7.12-.81-7.75-.61-1.28.7-8.21,2.61-12.61C357.16,231.88,358.51,230,359.65,228.81Zm54.91,73.68c-.35.05-.68.13-1,.15a50.84,50.84,0,0,0,22.68-17,14,14,0,0,0,1.18-1.27,14.73,14.73,0,0,1-1.44,1,52.71,52.71,0,0,0,7.8-13l1.94-5c1.33-3.79,1.94-4.86,2.08-3.64s-.23,4.75-2,9.69c-3.92,10.5-12.48,19.75-22.6,25.33A54.19,54.19,0,0,1,414.56,302.49Z"/></svg>