<svg id="Layer_1" data-name="Layer 1" xmlns="http://www.w3.org/2000/svg" viewBox="0 0 512 512"><title>hamburger-handdrawn</title><path d="M463.94,348.66s3.33,1.91,3.32,1.92c-.16.27-6.67-2.12-6.78-1.92s6.06,3.22,5.93,3.44c-.23.4-13.82-4.26-14.3-3.44-.24.42,12.47,6.72,12.25,7.09-.42.73-13.49-2.46-13.94-1.68-.68,1.18,10.15,4.36,9.49,5.5-.4.69-11.76-5.73-12-5.32-.58,1,8.74,4.15,8.34,4.83-.54.94-23.09-10.23-23.68-9.2S452.46,360.24,452,361.1s-13.12-8-13.46-7.44c-.57,1,8.26,3.33,7.64,4.42-.17.3-9.07-2.68-9.39-2.12-.89,1.55,13.09,6,12.41,7.18s-20.84-11.08-21.47-10c-.72,1.25,13.59,5.6,12.61,7.3-.37.65-13.67-6-14.15-5.21-.92,1.61,28.61,13.77,27.4,15.87-1.42,2.46-43.15-21.89-44.49-19.57-.91,1.58,34,16.91,32.76,19s-31.38-17.34-32.2-15.9c-1.7,3,28.44,12.71,26.81,15.53-1.51,2.63-41.59-18.41-42.34-17.11-1.38,2.39,55.27,29,54,31.25-1.79,3.11-66.59-37.22-68.61-33.7-1.18,2,58.56,28,56,32.44-.92,1.61-51.64-30.39-53.48-27.19-2.81,4.89,58.74,29.42,56.75,32.86s-61-34.88-62.82-31.74c-3,5.13,63.23,31.76,61.13,35.4-1.91,3.32-64.36-39.13-66.31-35.74-2.86,5,66.76,34.13,64.8,37.53-2.14,3.73-78.36-46.9-80.78-42.69-2.11,3.66,71.81,34.23,68.63,39.74-1.19,2.06-66.14-39.44-68.61-35.14-3,5.23,65.94,32.92,63.67,36.87-1.49,2.58-69.63-45.38-72-41.33-1.64,2.85,75.23,37.72,72.71,42.1-3,5.14-77-44.53-79.14-40.86-1.93,3.36,88.56,43.9,85.38,49.44-1.78,3.1-82.47-53.26-85.72-47.63-2.29,4,88.45,42.8,84.81,49.11-3.26,5.66-84.44-50.78-86.67-46.91-3.43,6,88.61,44.36,85.61,49.57-2.34,4.06-96.56-58.1-99.59-52.84-2.55,4.42,92.22,47.23,89.55,51.86-3.65,6.35-93.73-62.69-97.42-56.29-4,6.94,93.88,46.35,90.42,52.36-2.95,5.12-78.69-50.39-81.53-45.47-3.19,5.53,88.06,41.78,84.08,48.69-3,5.25-82.87-51.4-84.61-48.37-3.09,5.38,87.88,43.28,84.6,49-2.42,4.2-101.25-59.17-104-54.41-2.59,4.51,93.18,47.34,90.32,52.3-3.23,5.61-97.07-57.94-99-54.58-4.07,7.07,92.79,45.68,89.31,51.72-1.72,3-84.7-53.81-88-48.05s97.25,52.12,95.44,55.27c-3.81,6.61-97.85-53.67-99.69-50.47-3.26,5.66,80.86,38.63,77.32,44.77s-87-57.39-90.39-51.52,89.28,45.32,86.53,50.11c-1.8,3.13-77.33-47.62-80.38-42.32s77.62,36.41,73.93,42.81c-2.43,4.22-81.5-49.82-83.84-45.75-2.54,4.41,92.24,48.29,90,52.13-2.6,4.51-91.85-54.93-93.89-51.39-2.3,4,82.89,43.87,81.11,47-2,3.51-92.08-55.31-94.84-50.53-2.55,4.43,97.35,52.23,95.56,55.34-2.53,4.39-106.84-60-109-56.33-3.64,6.32,89.19,45.44,86.51,50.1-2.22,3.85-87.15-51.13-89-48-3.38,5.88,98.65,47.7,94.58,54.77-2.66,4.63-98.17-62.6-102.1-55.77-2.4,4.18,100,50.14,96.66,56-1.74,3-89.59-59.49-93.19-53.23-2.5,4.34,82,42.38,79.8,46.21-1.56,2.71-83.54-53.15-85.82-49.19-3.26,5.67,94.16,45.46,90.25,52.26-3.37,5.86-92.93-59.57-95.56-55s95.61,51,93.74,54.28c-2.73,4.75-96-56.37-98.62-51.84-2.14,3.71,90.35,43.12,86.38,50C306,407.65,226.84,350,224,355c-2.92,5.08,81.93,38.07,77.88,45.1-2.57,4.46-84.35-49.47-87.49-44-2.23,3.88,94.13,46.66,90.74,52.55-2.65,4.61-94.8-55.69-96.68-52.43s83.28,43,81,46.93c-2,3.46-86.33-54-88.35-50.46-2.2,3.82,96.26,47.46,92.68,53.67-2.68,4.65-93.93-57-95.8-53.74-3.46,6,99.55,50,96.25,55.73-2.05,3.56-105.22-62.49-108.38-57-2.5,4.34,96.28,47.23,92.6,53.63-1.6,2.78-87.89-56.12-90.65-51.33s84.91,43.77,82.58,47.82c-3.09,5.37-87.65-52.45-89.85-48.62-3.77,6.55,86.09,45.25,84.1,48.7-2.54,4.41-76.3-50.1-79-45.48-3.53,6.13,82.71,41.15,79.8,46.21-2.49,4.33-79.34-47.37-80.86-44.72-2.38,4.14,81.09,41.75,78.84,45.65-3.2,5.55-84.79-49.46-86.81-46-3.47,6,76.39,38.38,73.86,42.77-1.51,2.63-82.76-45.27-84.72-41.87-3.25,5.65,84,41.27,80.85,46.82-2,3.54-86.15-53-89.55-47.11-4.06,7.05,80.25,39.24,77.13,44.66-1.48,2.58-85.4-47.37-87-44.67C144.54,362.61,233,398.25,229,405.1c-3.83,6.65-104.23-61.83-108-55.24-2.31,4,103.18,53,100.27,58.06-3.63,6.3-89.44-59.37-93-53.21-2.54,4.41,80.91,40.35,78.1,45.23-3.35,5.81-82.59-51.46-85.95-45.63-3.84,6.66,90.62,48.07,88.71,51.37-1.69,2.94-86.9-55.76-90.18-50.06-3.48,6,95.37,47.76,92.14,53.36-3.07,5.34-93.61-57-97-51.12-1.93,3.35,82.87,43.6,81,46.89-2.92,5.07-84.55-51.12-86.45-47.82-3.59,6.24,83.3,43.92,81.44,47.16-2.61,4.53-100.4-61.73-104.31-54.94-2.63,4.56,105.69,55.67,103.3,59.82-2.65,4.61-87.45-58.23-91-52-2.17,3.78,81.92,41.81,79.49,46S90,351.07,87.67,355.08c-2.76,4.8,84.11,42.08,81.25,47-2.18,3.79-74.78-49.2-77.5-44.48-4,7,80.36,40.19,77.62,44.95-2.54,4.4-83.61-50.1-86.12-45.74-3.7,6.43,83.93,44.33,82.09,47.54-2.82,4.9-100.64-59.25-103-55.08-3.14,5.46,91.66,47.85,89.41,51.77C148.69,405.74,61.16,349.18,59,353c-3.35,5.81,95,49.07,92.44,53.53-4.11,7.14-100.59-63.14-103.74-57.66-2.31,4,105.07,55.45,102.74,59.5-2.78,4.83-110.28-65-113.83-58.81-2.27,3.94,94.41,46.38,90.83,52.6-2.48,4.32-79.83-49.28-81.9-45.69-3.39,5.89,79.64,40.14,77.05,44.62-1.9,3.29-73-39.21-74.85-36-2.18,3.78,66.46,34.31,64.65,37.44-2.15,3.73-66.62-40.14-68.19-37.43-2.58,4.49,70.14,34.33,67.43,39C110.41,406.26,51,371.29,49.45,374c-2.24,3.9,61.86,31.85,60.14,34.83C108.67,410.4,66,381.94,65,383.71s40.78,20.92,39.62,22.94S63,387.57,62.06,389.25c-.84,1.47,25.29,11,23.73,13.74-.4.7-11.46-5.47-11.88-4.74-1.29,2.25,18,8.09,17,9.85-.59,1-19.17-10.07-19.64-9.26-.75,1.3,17.73,8.59,17,9.85-.32.56-12.85-3.63-13.31-2.82-.08.15,5.53,3.09,5.48,3.17" fill="none" stroke="#999" stroke-linecap="round" stroke-linejoin="round" stroke-width="1.31"/><path d="M37.34,348.89c-7.38.38,427.66.61,430.13.27-8.74,21.89-19.86,42.7-42.87,60C421.54,407.94,79,408,80,408.18,49.54,391.27,50.05,372.43,37.34,348.89Z" fill="none" stroke="#666" stroke-width="3.27"/><path d="M38.58,349c-5,1.16,426.88.26,434.32-.45-13.7,22.92-23.7,43.32-52.2,59.48-6.75-.28-336.83.16-339.27.85C62.18,391.86,52.15,371.39,38.58,349Z" fill="none" stroke="#4c4c4c" stroke-width="2.45"/><path d="M192.18,162.18c-2.44,4.24,96.26,47.2,92.57,53.61-2.31,4-80.55-52.87-83.61-47.55s80.5,38.12,76.83,44.49c-2.52,4.37-82.52-46.49-84-43.93-2.08,3.62,89.22,45.73,86.65,50.18-3.23,5.62-92.12-53.71-93.78-50.84-3.43,6,87.83,43.51,84.66,49-1.48,2.57-81.33-51-83.88-46.53-3.34,5.8,87.17,43.6,84.2,48.76-1.86,3.24-84.15-54.93-87.23-49.58-2.58,4.48,75.67,38.6,73.42,42.52-1.35,2.34-65.82-44.18-68.46-39.59-3.31,5.75,72.41,33.93,69,39.93" fill="none" stroke="#999" stroke-linecap="round" stroke-linejoin="round" stroke-width="1.31"/><path d="M166,149.1c-.76,1.32,18.19,8,17.08,9.89-1,1.66-28.18-12-29.25-10.14s15,7.28,14.43,8.36-20.75-10-21.21-9.15c-.86,1.49,28,14.66,27.33,15.83" fill="none" stroke="#999" stroke-linecap="round" stroke-linejoin="round" stroke-width="1.31"/><path d="M218.3,146.47c-3.91,6.8,123,65.28,120.4,69.72C336.35,220.27,224.56,150,222.29,154,219.81,158.29,332,208.16,328,215.18c-2.71,4.72-103.57-63.19-106.53-58C218,163.22,324,206.44,319.63,214c-2.53,4.4-102.39-67.75-106.26-61-2.53,4.4,112,56.19,108.23,62.67-4,6.88-102.12-67-105.77-60.66-4,7,100.35,53,98.13,56.82" fill="none" stroke="#999" stroke-linecap="round" stroke-linejoin="round" stroke-width="1.31"/><path d="M189.14,137c-.77,1.33,9.66,4.35,9.12,5.28-.08.14-.92,2.92-1,3C193.4,152,323,211.43,320.12,216.41c-3.1,5.39-129.31-82-133.73-74.32-4.59,8,124,62.28,119.86,69.41C304,215.36,186.63,138.27,183.88,143c-4.95,8.6,126.47,67.58,124,71.82" fill="none" stroke="#999" stroke-linecap="round" stroke-linejoin="round" stroke-width="1.31"/><path d="M263.3,143.79c-4.92,8.54,129.36,66.49,125.72,72.81C384.52,224.43,267.8,141,264.6,146.54c-4.42,7.67,126.7,64.25,122.77,71.09-2.67,4.65-123.42-80.22-128.32-71.71-4.64,8.05,128.73,67.94,125.88,72.9-4.35,7.56-119.67-73.23-123.55-66.5-3.38,5.88,110,55.93,106.68,61.78-3.48,6-98.33-65.76-102.26-58.94-3.69,6.41,104.94,53.11,101.63,58.85" fill="none" stroke="#999" stroke-linecap="round" stroke-linejoin="round" stroke-width="1.31"/><path d="M253,129.93c-6.63,11.52,146.64,73.07,141.53,82-3,5.28-138.49-89.35-142.61-82.18-6.73,11.69,160.63,77.55,153.95,89.15C403,223.79,255.33,126.5,252.2,132c-6.5,11.29,152,73.49,145.69,84.37-4.47,7.77-146.67-87.57-149.34-82.92-3,5.18,143.83,69.85,138,79.93-4.38,7.61-131.6-85-137.07-75.47-.49.86,4,1,3.43,2" fill="none" stroke="#999" stroke-linecap="round" stroke-linejoin="round" stroke-width="1.31"/><path d="M306.8,147.42C304.27,151.83,431.35,209.36,427,217c-3.57,6.2-120.47-72.46-124.36-65.69-2.85,4.95,122,63.2,118.78,68.78-4.51,7.83-112.43-70.39-115.38-65.27-2.4,4.16,105.62,52.59,101.92,59-2.45,4.25-97.31-60.56-100-55.85-3.93,6.82,97,49.86,94.24,54.57" fill="none" stroke="#999" stroke-linecap="round" stroke-linejoin="round" stroke-width="1.31"/><path d="M308.2,129.66c-3.84,6.68,149,71.61,142.69,82.63-5.43,9.44-142.61-89.69-147.72-80.82-4.89,8.49,144.1,69.75,138.18,80C436.61,219.75,316,130.72,312,137.62c-3.79,6.59,148.11,76.79,144.24,83.53-2.84,4.94-143.46-95.1-148.91-85.64-3.94,6.85,136.87,67.33,131.72,76.27-4.16,7.22-142-86.1-145-80.81-3.68,6.4,146.68,71,140.65,81.45-4.1,7.13-125.66-78-128.11-73.75-4.1,7.13,132.23,69.59,129.22,74.83" fill="none" stroke="#999" stroke-linecap="round" stroke-linejoin="round" stroke-width="1.31"/><path d="M350.31,141.26c-3.13,5.44,114.33,61.1,112.13,64.93s-97.79-62.35-101.61-55.72c-4.54,7.89,98.86,50.48,95.94,55.55-3.39,5.89-95.11-62.79-98.65-56.64-3.36,5.83,111.39,59.57,109.26,63.27-4,7-109.71-63-112.21-58.62-5,8.77,117.77,62.58,115.35,66.79" fill="none" stroke="#999" stroke-linecap="round" stroke-linejoin="round" stroke-width="1.31"/><path d="M334.6,132.3c-.49.85,2.81.78,2.44,1.41-.2.34-7-2.81-7.13-2.6-.29.51,1.46-.25,1,.57-.18.31-3,5.48-3.14,5.65-.48.83,4.56,1.45,4,2.34-.15.27,4.68,3.28,4.52,3.56-.58,1,4,1.08,3.46,2" fill="none" stroke="#999" stroke-linecap="round" stroke-linejoin="round" stroke-width="1.31"/><path d="M387.66,135.48c-.74,1.29,17.15,8.57,16.56,9.59-1.92,3.34-52.29-25.3-53.36-23.45-2.71,4.7,82.72,43.12,80.66,46.71-2.76,4.79-93.82-52.37-96-48.63-4.61,8,109.81,55.4,106.28,61.54C438.5,187,312.35,104.39,310,108.53c-3.33,5.78,151.65,74.84,146,84.57-3.4,5.91-140.24-87.57-144.1-80.86-2.77,4.81,153.88,79,149.52,86.58-4.21,7.31-157-91.46-160.48-85.44-.89,1.55,21.54,10,20.48,11.86-.73,1.27-37.27-20.18-38.5-18.05-1,1.78,22.85,9.78,21.36,12.37-.32.56-12.53-7.28-12.85-6.73-1.13,2,21.8,9.92,20.63,11.95-.69,1.21-33.09-20.87-34.14-19-.89,1.55,28.76,14.63,27.89,16.15-1.06,1.83-34.86-14.87-35.81-13.21-.8,1.39,13.85,6.71,13.28,7.69-.69,1.2-19.88-9.94-20.31-9.19-.95,1.65,14.84,6.17,13.79,8-.63,1.09-21-13.62-21.82-12.24s22.56,10.21,21.32,12.35c-.45.78-26.79-9.69-27.36-8.71C243.6,115.79,445,211.88,441.42,218.06c-7.14,12.4-197.39-118-201.85-110.21s192.94,94.94,185.69,107.53c-6.5,11.3-191.87-117.68-198-107.09-1.45,2.51,69.82,36.73,68.22,39.51s-68.87-38.31-71.21-34.23c-.85,1.48,8,2.51,7.07,4.1-.48.83-14.42-6.37-14.72-5.86-.93,1.61,10.55,5,10.07,5.83s-26.59-9.82-27-9.06c-1.22,2.13,27.63,13.74,26.66,15.44-.66,1.15-19.68-8.7-20.37-7.5-2.21,3.84,35.95,18,34.73,20.11-1,1.7-45.23-26.52-46.54-24.25s51.68,26.85,50.35,29.16c-2.24,3.89-62.94-33.89-64.72-30.79-7.23,12.56,191.78,98.51,186.36,107.92C359.7,229.9,191.67,106.42,184.66,118.6c-6,10.47,178.05,90.11,172.44,99.86C352,227.35,188.2,107,181.43,118.77c-5.38,9.34,171.73,91.79,168.43,97.53-3.71,6.45-164.65-102.08-167.89-96.45-4.51,7.83,176.55,93.16,172.63,100-5,8.72-166.55-107.14-171.39-98.73-5.51,9.57,168,87.92,164,94.95C342.43,224.26,177,111.5,173.79,117.09c-3.38,5.88,175.87,93.47,172.26,99.75-5.76,10-174.2-103.61-177.56-97.77-1.79,3.11,35.24,17.29,33.9,19.63-.92,1.61-38.37-18-39.1-16.73-.64,1.11,9.86,3.94,9.1,5.27-.65,1.14-19.68-7.35-20.33-6.21s17.19,7.78,16.25,9.41c-.41.71-14.8-2.92-15.11-2.37-3.74,6.5,155.1,79.1,150.48,87.14-6.14,10.67-150.83-93-154-87.48-6,10.48,154.39,81.16,150.83,87.34-5.27,9.16-156.59-97.76-159.69-92.38-5,8.69,169.22,91.21,166.29,96.3-2.72,4.72-149.23-93.79-152.52-88.07-4.61,8,151,79,147.38,85.35-5.27,9.15-156.14-95.35-161.29-86.41-3.08,5.35,146.2,74,141.58,82-3.31,5.75-148.62-90.49-153.24-82.46-.72,1.26,9.59,4.66,9.2,5.33-.25.43-10.87-6-11.27-5.31s17.71,9.37,17.33,10c-.26.45-11.56-5.53-11.76-5.18-.53.93,6.15,2.46,5.68,3.29-.19.33-6.53-3.17-6.76-2.76-.73,1.26,6.84,2.54,6.23,3.61-.32.56-18.16-7-18.61-6.28-.63,1.09,18.58,8.63,17.66,10.23-.48.83-20.13-7.73-20.58-6.94-4.51,7.83,144.73,75.47,141.13,81.72-5.67,9.85-136.7-88.11-141.84-79.17-4.16,7.23,143.77,70.28,138.17,80-3.26,5.66-133.16-81.67-137.92-73.4-3.08,5.36,123.39,65.74,120.92,70-4.1,7.12-120.45-77.69-125.3-69.28-5.11,8.88,126.34,65.64,123.09,71.28C232,220.7,122.23,142,118,149.29c-4.32,7.5,126.73,62.45,122,70.65S115.9,144.79,113,149.77c-4.37,7.58,119.4,62.89,116.7,67.58-3.75,6.51-132-75.34-134.46-71-4,7,128.58,64.68,124.36,72-4.4,7.64-114.89-71.55-119.34-63.82s114,59,111,64.28c-4.45,7.73-111.38-68-114-63.53C94,161,210.63,216,208.51,219.7c-3,5.14-103.79-66.56-106.94-61.08-4.06,7,110.59,55.54,106.92,61.92-2.76,4.79-108-65.81-112.16-58.5C94,166.11,193.12,211,190.06,216.3c-1.79,3.11-95.32-59.55-98.7-53.68-3.07,5.33,92,46.94,89.27,51.69-2.06,3.58-90.69-53.81-93.51-48.91-4.07,7.06,85,43.45,82.52,47.78-2.84,4.93-87-50.1-88.85-46.8-2,3.52,96.32,48.33,93.1,53.92-1.65,2.86-92.16-56.26-94.32-52.52-3.89,6.75,90.63,44.16,87,50.4-1.54,2.67-79.7-48.25-82.49-43.4-3.61,6.27,76.59,37.66,73.7,42.68-2.17,3.77-75.55-45.86-76.9-43.52-2.88,5,83.5,42.09,80.79,46.78-3,5.17-87.7-51-90.35-46.4-2,3.48,77.79,39.75,75.51,43.72s-71.12-44.19-72.56-41.7c-2.73,4.74,74,37.32,71.58,41.45-2.27,4-65.86-40.39-67.83-37-1.47,2.55,61.85,30.9,59.72,34.59-1.5,2.6-74-45.62-76.54-41.26-2.85,4.94,82,40,78.75,45.6-1.51,2.62-70.77-40.12-73.6-35.19-2.58,4.47,62.7,31.33,60.55,35.06-1.83,3.19-62.35-37.76-64-34.9-2.57,4.47,48.15,24.2,46.56,27-.93,1.61-41.84-22.49-42.61-21.15-2.31,4,43.28,21.16,41.59,24.09s-51.23-28.28-52.25-26.49c-1.74,3,54.78,27.37,52.9,30.63-1.31,2.27-52.4-28.16-54.29-24.87s31.68,15.43,30.42,17.62c-.71,1.23-28.13-11.59-28.76-10.49-.82,1.42,21.14,10.26,20.28,11.75-.56,1-23-7.56-23.63-6.48-1.3,2.27,20.43,8.46,19,11-.92,1.59-30.07-19.69-31.21-17.71s37.93,19.78,37,21.42c-.46.8-22.63-12.34-23.23-11.3-.87,1.51,17,6.73,15.67,9.08-.5.88-22.87-7.75-23.32-7-.79,1.36,9.3,3.48,8.48,4.91-.49.84-13.59-3.55-13.9-3-.41.72,4.85,1.89,4.45,2.58-.13.23-5.64-.33-5.82,0-.52.9.5-.79,0,0-.08.15-2.44.4-2.49.5-.41.71,1.76.4,1.49.86-.36.62-10.36-.89-10.73-.24-.14.24,6.69,3.54,6.55,3.79s-7.36-2.24-7.54-1.92c0,0,3.34,1.89,3.32,1.92" fill="none" stroke="#999" stroke-linecap="round" stroke-linejoin="round" stroke-width="1.31"/><path d="M251.64,105.87C149.36,102.79,60,154.12,28.4,219.55c-4.5,1.6,450.61,2.55,439.39-1.26C445.14,152.42,357.42,103.42,251.64,105.87ZM149.26,148.79a4.73,4.73,0,0,1-4.92-4.56c-.1-2.43,2.22-4.34,4.83-4.45,2.81.06,5.09,2.15,5,4.46A4.7,4.7,0,0,1,149.26,148.79Zm27-12.71c0-2.6,1.5-4.47,3.28-4.56s3.48,2,3.31,4.26c.13,2.6-1.33,4.7-3.26,4.46C177.67,140.32,176.17,138.44,176.22,136.07Zm8.19,33.34c-2.66-.07-4.89-2.47-4.9-5.84a4.95,4.95,0,1,1,9.78,0C189.33,166.72,187.18,169.41,184.41,169.41Zm25.88-18.19a4.75,4.75,0,0,1-4.9-4.56c-.1-2.43,2.23-4.37,4.8-4.48,2.81.06,5.09,2.18,5,4.48A4.71,4.71,0,0,1,210.29,151.22Zm26.9-21a4.75,4.75,0,0,1-4.9-4.59c-.1-2.43,2.23-4.34,4.8-4.45,2.81.06,5.09,2.16,5,4.46A4.72,4.72,0,0,1,237.19,130.19Zm18.57,18.59a4.73,4.73,0,0,1-4.9-4.56c-.1-2.43,2.23-4.34,4.8-4.45,2.81.06,5.09,2.15,5,4.46A4.7,4.7,0,0,1,255.76,148.79Zm32.31-23a4.67,4.67,0,0,1,4.77-4.56c2.72-.06,5,2,4.8,4.26a4.22,4.22,0,0,1-4.72,4.48C290.14,130.08,288,128.17,288.07,125.81Zm11.67,26.91a4.75,4.75,0,0,1-4.92-4.56c-.1-2.43,2.26-4.37,4.83-4.48,2.81.06,5.09,2.19,5,4.49A4.69,4.69,0,0,1,299.74,152.72Zm23.46-17.63a4.78,4.78,0,0,1-4.93-4.59c-.1-2.43,2.27-4.34,4.84-4.45,2.8.06,5.08,2.16,4.94,4.46A4.72,4.72,0,0,1,323.19,135.09Zm20.53,11.76a4.76,4.76,0,0,1-4.93-4.59c-.1-2.43,2.23-4.34,4.83-4.45,2.8.06,5.08,2.16,4.94,4.46A4.72,4.72,0,0,1,343.72,146.85Z" fill="none" stroke="#666" stroke-width="3.27"/><path d="M253.9,102.17C145.43,103.33,66.18,152.08,32.72,222c3.4-1.37,444.34-1.49,438.87-1.12C448.69,152.24,360.42,104.42,253.9,102.17ZM149.31,148.69a4.72,4.72,0,0,1-4.88-4.36,4.93,4.93,0,0,1,4.72-4.53c2.93.1,5.07,2.1,5,4.45A4.76,4.76,0,0,1,149.31,148.69Zm26.88-12.8c0-2.41,1.61-4.36,3.45-4.36s3.32,2,3.24,4.36c.12,2.42-1.38,4.42-3.37,4.45S176.32,138.38,176.19,135.89Zm8.27,33.4c-2.79-.11-4.79-2.62-4.85-5.59s2.25-5.63,4.69-5.82a5.4,5.4,0,0,1,5,5.72C189.14,166.65,187.24,169.28,184.46,169.29Zm25.88-18.16a4.73,4.73,0,0,1-4.85-4.36,5,5,0,0,1,4.69-4.56c2.93.1,5.07,2.13,5,4.47A4.78,4.78,0,0,1,210.34,151.12Zm26.9-21a4.74,4.74,0,0,1-4.85-4.39,4.93,4.93,0,0,1,4.69-4.53c2.93.1,5.07,2.1,5,4.45A4.78,4.78,0,0,1,237.24,130.09Zm18.57,18.59a4.72,4.72,0,0,1-4.85-4.36,4.93,4.93,0,0,1,4.69-4.53c2.93.1,5.07,2.1,5,4.45A4.76,4.76,0,0,1,255.81,148.69ZM288,125.62c0-2.41,2.32-4.36,5-4.37s4.81,2,4.69,4.36c.17,2.42-2,4.45-4.88,4.47A4.79,4.79,0,0,1,288,125.62Zm11.77,27a4.74,4.74,0,0,1-4.88-4.36,5,5,0,0,1,4.72-4.56c2.93.1,5.07,2.13,5,4.48A4.76,4.76,0,0,1,299.79,152.62ZM323.24,135a4.77,4.77,0,0,1-4.89-4.39,5,5,0,0,1,4.73-4.53c2.92.1,5.06,2.1,5,4.45A4.78,4.78,0,0,1,323.24,135Zm20.53,11.76a4.75,4.75,0,0,1-4.88-4.4,4.94,4.94,0,0,1,4.73-4.53c2.92.1,5.06,2.1,5,4.45A4.78,4.78,0,0,1,343.77,146.75Z" fill="none" stroke="#4c4c4c" stroke-width="2.45"/><path d="M483.66,289.35c-.13.22,7.4,3.9,7.23,4.19-.32.56-15.4-5-15.89-4.1-.69,1.2,10,3.82,9.16,5.3-.76,1.32-21.35-6.11-21.82-5.3-1,1.74,24.81,10.92,23.32,13.51-.57,1-21.73-9.12-22.27-8.19-1.61,2.8,38,17.94,36.26,21-1.54,2.67-50.12-25.2-51.15-23.4-2.08,3.61,42,19.76,40,23.16-1,1.69-47.71-26.27-48.69-24.57-2.44,4.25,59,31.1,57.68,33.4-2.24,3.9-57.53-31.16-58.6-29.3-2.66,4.62,48.29,22.58,46,26.62-1.46,2.54-49.53-28.78-50.55-27-2.78,4.82,60.85,30.83,58.95,34.13-1.2,2.09-66.8-39.32-68.68-36.05C423,295.42,483,319.83,480.1,324.89c-1.83,3.18-58.1-35.92-59.21-34-2.16,3.76,61.92,31.06,59.85,34.66-1.91,3.32-65.29-35.5-67.15-32.27-2.75,4.78,68.27,34.73,66.2,38.33s-76.65-40.38-78-38.05c-2.31,4,65.7,32.94,63.5,36.77-2.81,4.88-69.95-44.71-71.85-41.4-2.89,5,72.06,34.25,68.83,39.86-2.19,3.8-67.19-43.34-69.7-39-3.31,5.75,77.79,37.36,74.47,43.12-1.43,2.49-71.2-40.5-72.89-37.56C392,299,464,330.43,461.68,334.5c-2.81,4.88-75.92-41.17-77.4-38.61-2.61,4.54,60.84,31.78,59.35,34.37-2.54,4.41-70.15-39.82-72.35-36-1.44,2.5,61.07,30.59,59,34.17-2.17,3.77-72.45-41.14-75.3-36.19-1.57,2.72,78.07,37.88,74.91,43.38-2.29,4-79.34-48.36-82-43.78-2.12,3.68,69.54,33.37,66.56,38.55s-78.84-46.61-80.75-43.28c-1.71,3,82.42,41,79.51,46-2.41,4.19-70.67-44.19-72.48-41-2.23,3.87,72,34.34,68.83,39.86-2.25,3.91-71.59-42.74-74.29-38s63,31.69,60.93,35.28c-1.71,3-81-45.55-83.19-41.81-1.86,3.23,78.88,41.88,77.24,44.73-2,3.52-67.35-40-69.31-36.66-2.59,4.5,68.32,33.07,65.51,37.94-1.63,2.83-72.52-44.08-74.22-41.12-2.93,5.08,78.17,40.26,76,44-2.77,4.8-74-44.62-75.72-41.59-2,3.52,63.62,31.55,61.34,35.52-1.45,2.52-69-40.4-70.44-37.9-2.25,3.91,62.74,30.53,60.23,34.88-1.33,2.32-72.46-41.32-74-38.62-2.49,4.33,76.69,38.35,74.08,42.9-2.78,4.82-74.17-41-75.66-38.44-2.55,4.44,63.77,29.74,60.67,35.13-1.81,3.15-74.86-44.07-77.1-40.18-3.14,5.46,81.56,39.83,78.37,45.38-2,3.55-75.17-46.8-77.61-42.57-1.73,3,76.57,38.26,73.94,42.82-1.92,3.34-75.06-42.26-77.33-38.31-2.78,4.83,61.74,28.62,58.66,34-1.67,2.9-59-37-60.89-33.65-3.25,5.64,71.09,34.74,68.31,39.56-1.77,3.08-77.39-46.8-79.07-43.88-2.55,4.43,65.43,31.14,62.51,36.2-2.32,4-65-39.49-66.9-36.12-1.85,3.21,77.8,40.54,75.85,43.92-1.35,2.35-74.82-45.35-77.5-40.69C246.8,300.24,321.52,332,319.78,335c-1.65,2.87-71.43-42.82-74-38.43-2.42,4.2,63.94,33,62.21,36-2.79,4.85-74.19-44.82-75.75-42.12-3,5.21,73.31,38.71,71.7,41.52s-66.8-41.32-68.8-37.84C232.7,298.47,306,330.42,304,334c-2.85,4.95-74.77-45.4-76.29-42.76C225,296,291.2,323.6,289.3,326.9c-1.6,2.77-59.75-33.27-61.25-30.67C225.89,300,293,327,290,332.12c-1.87,3.25-77.82-46.06-79.56-43-3.34,5.8,84.68,42.37,81.8,47.37-3.08,5.35-85.08-51.29-87.16-47.67-1.57,2.73,82.17,44,80.6,46.68-2.51,4.37-74.31-44.33-77.17-39.36-2.18,3.79,71.33,36.48,69.25,40.1-1.79,3.1-90.22-53.72-93.46-48.09-2.49,4.33,83.94,44.52,82.17,47.58-2.6,4.51-76.78-42.73-79-38.87s71,35.08,68.37,39.59c-2.86,5-76-46.66-79.08-41.28-1.67,2.9,61.66,29,58.78,34-1.66,2.89-72.13-46-75.08-40.9S241.71,329,239,333.73c-1.69,2.93-79.18-51.72-82.14-46.58-3.31,5.75,81.49,42.69,79.55,46.07-1.85,3.21-79.42-47.66-82.64-42.06-2.2,3.81,65.51,34,63.79,36.94-2.11,3.67-60.92-36.94-63.39-32.65C152,299.11,222.5,330.86,220.7,334c-2.67,4.64-84.94-49.78-87.23-45.8s85.24,42.07,82.1,47.54c-2.58,4.47-81.11-46.48-83.14-42.95-2.77,4.82,69.66,33.73,66.81,38.69s-81.36-44.18-83.07-41.21c-3.17,5.5,66.12,33.65,64.12,37.13-1,1.77-56-34.58-57.56-31.81-2,3.43,67.1,35.43,65.62,38-2.75,4.78-71.19-41.44-73-38.32-2.69,4.67,70.78,35.4,68.37,39.59-2.79,4.84-78.84-46.24-81.95-40.85-1.68,2.93,61.13,30.92,59.19,34.28-2.32,4-73.14-46.21-76-41.17s84.75,44.9,82.94,48c-1.71,3-75.72-43.37-78-39.38-2,3.44,65.15,30.15,61.88,35.83-2.35,4.09-72.47-47-74.75-43s81.24,42.28,79.18,45.85c-2.25,3.9-81.59-47.79-84-43.54-1.45,2.52,65.57,31.09,62.6,36.25-1.81,3.14-70.19-40.27-72.27-36.65-1.67,2.91,76.57,38.27,73.95,42.82-2.34,4.07-73.69-47.24-76.08-43.09-2.19,3.81,70.86,35.67,68.54,39.69-2.19,3.81-71.11-46.47-74.05-41.36-2.61,4.53,68.65,36.37,67.19,38.91-2.36,4.1-64.63-37.72-66.13-35.11s76.89,39.2,74.59,43.19-75.81-49.08-78.71-44c-3.13,5.43,72.07,38,70.47,40.81-2.33,4.05-73.09-43.12-74.93-39.94-2.57,4.46,71.87,37.55,70.11,40.6-2.17,3.76-72.48-38.55-74-35.94-2.33,4,62.57,30.09,59.92,34.7-1.94,3.37-61.48-39.17-63.11-36.33-3,5.25,70.07,35.21,67.76,39.24-1.87,3.25-70.1-43.13-72.77-38.49-2.51,4.36,57.07,29.71,55.63,32.21-1.25,2.17-66.2-37.13-67.86-34.24-2.81,4.89,61.78,30.18,59.36,34.38-1.25,2.16-53.81-31.15-55.24-28.67-1.65,2.86,58,28.44,55.74,32.28-1.95,3.39-50.39-29.81-51.71-27.52s45.36,22.65,43.79,25.36c-1.42,2.47-49.54-28.38-50.85-26.1C22.16,307.17,68.63,325.92,67,328.7c-1.39,2.42-39.81-17.41-40.53-16.16C25.42,314.4,55.12,324.72,53.23,328c-.87,1.51-24.9-15.92-25.66-14.6C25.63,316.78,57.4,327.93,56.21,330c-1.57,2.73-40.68-23.79-42.12-21.28-1,1.8,44.61,22.35,43.11,25-1.71,3-43.32-24.85-44.27-23.22-1.51,2.62,39.65,20.31,38.5,22.3s-30.65-16.93-31.3-15.81c-1,1.78,23,9.61,21.42,12.41-.43.75-20.88-9.06-21.55-7.89-1,1.66,17.62,8.84,17,9.86s-17.57-6.49-18.2-5.4,6.44,2.4,5.86,3.4c-.11.19-5.65-1.87-5.78-1.64-.25.43,1.46.29,1.22.71-.1.18-3.16-1.84-3.26-1.66-.3.52,10.22,5.32,10,5.77-.12.21-6.12-2.76-6.29-2.46s7.3,4,7.22,4.18" fill="none" stroke="#999" stroke-linecap="round" stroke-linejoin="round" stroke-width="1.31"/><path d="M10.81,312.32c-2.25,0-2.7.4,2.18-.61-3.84,12.81,9.6,25,23.76,23.85-7.41,1.05,440.13.79,432.89-.55,20.41.86,33.38-10,23.85-23,5.75.51,7.08-1,5.22.39,4.5-14-4.78-25.35-24.38-24.9,1.49-.91-444.61.57-432.47,1.29C17.38,286.89,7.16,298.65,10.81,312.32Z" fill="none" stroke="#666" stroke-width="3.27"/><path d="M12.36,311.88c-7.12-.25,8.44,0-6.12-.44C20.08,325.09,28.46,336,41.7,335.83c-10.71-.72,427.4-.18,432.86.5,9.21-.52,27.71-11.81,23.94-24.73.49.57-8.14-.08,9.89-.21-19.14-12.57-26.39-23.3-38.49-23.63,11.69.34-436.47.61-442.9-.6C15.66,287.73,8,298.95,12.36,311.88Z" fill="none" stroke="#4c4c4c" stroke-width="2.45"/><path d="M490,269c-.05.09,5.06,2.77,5,2.89-.3.51-8.51,1.53-8.68,1.83-.42.73,1-.21.7.4-.1.17-6,.4-6.09.61-.4.7,10.15,4.62,9.61,5.56s-12.44-7.37-12.89-6.58,4.53,1.83,4.19,2.42c-.13.23-5.1-2-5.22-1.78-.42.73,4.48,1.27,3.91,2.26s-20.12-7.84-20.64-6.94,19.63,10.48,19.25,11.15c-.63,1.1-21.69-9.21-22.09-8.53s10,4.63,9.49,5.5c-.68,1.18-21.45-7.15-22.06-6.09-.43.75,12.66,6.29,12.21,7.07s-16.16-7.36-16.74-6.36c-.41.72,5.63,1.74,5,2.88-.12.21-3-1.74-3.08-1.59-.34.6,4.67,1.58,4.19,2.42-.08.14-3.75.09-3.87.29-.47.81,6,2.65,5.67,3.28s-15-6.83-15.43-6,4.69,1.55,4.19,2.42c-.28.49-8.44-2.84-8.69-2.42-.35.61,4.9,1.19,4.19,2.42-.34.6-10.48-2.89-10.75-2.42-.56,1,4.57,1.75,4.19,2.42s-10.33.56-10.58,1c-.4.69,1.36-.42.83.48-.31.54-8.63-4.48-9-3.91-.45.78,4.75,1.44,4.19,2.42s-13.78-3-14-2.57c-.68,1.18,9.52,3.95,8.85,5.12-.77,1.34-20.53-10-21-9.14-.73,1.27,11.56,5.86,11.2,6.49-.09.16-4.92-1.88-5.05-1.65-.39.68,9.67,4.76,9.31,5.39s-18.41-8.18-19.08-7,2.86.8,2.49,1.44c-.18.31-9.6-1.08-9.94-.48s4.57,1.76,4.19,2.42-10.6-3.09-11-2.42,4.63,1.65,4.19,2.42-18.56-4.56-19-3.8,12.2,5.74,11.63,6.73c-.19.33-7.41-2.07-7.57-1.79-.32.56.56-.64.14.08s-17.36-7.38-17.85-6.52,3,.36,2.39,1.38c-.27.47-9.32-2.23-9.64-1.67-.63,1.1,11.65,5.56,11.13,6.45-.23.39-10.29-3.37-10.57-2.88s7.46,3.42,7.07,4.09c-.3.52-9.45-2-9.79-1.44s4.08.7,3.36,1.95c-.32.56-9.65-5.74-9.92-5.28-.51.88.8-1.06.14.08,0,0-.69.14-.72.19-.6,1,4.56,1.78,4.19,2.42-.71,1.24-20-7.13-20.35-6.53-.67,1.16,13.19,6.19,12.56,7.28-.38.66-20.41-8.33-21.05-7.21s13.35,6.4,12.77,7.4c-1,1.7-26.27-9.49-27-8.23-.34.58,9.18,3.86,8.55,4.95s-16.31-4.45-16.68-3.81c-.51.88,8.46,4.11,8.12,4.7-.22.37-8.45-1.64-8.59-1.4-.72,1.26,9.59,4.58,9.17,5.31s-12.37-5-12.69-4.44c-.41.71,3.85,1.4,3.5,2-.48.83-18-4.08-18.36-3.36-.51.89,8.37,3.54,7.81,4.52s-17.1-4.43-17.57-3.62,4.72,1.5,4.19,2.42c-.4.69-14.88-3.3-15.38-2.42-.7,1.21,4.85,1.26,4.19,2.42-.52.9-23.1-7.73-23.51-7-.7,1.22,14.13,6.7,13.49,7.81-.48.84-15.59-5.54-16-4.82-.58,1,10.42,5.27,10.09,5.84-.51.88-17.31-4.94-17.71-4.24s4.62,1.67,4.19,2.42c-.06.11-3.56-.71-3.68-.5-.63,1.1,6.51,3,6.18,3.58-.6,1-18.69-6.46-19.24-5.51-.42.72,4.74,1.46,4.19,2.42-.15.26-6.75-2.54-6.88-2.31-.49.85,4,.68,3.26,1.89-.28.49-12-2.68-12.41-2-.63,1.1,4.78,1.38,4.18,2.42-.26.45-15.61-6.5-16.17-5.52s17.82,8.69,17.11,9.91c-.2.35-8.07-4.51-8.32-4.08s7.55,3.55,7.2,4.17c-.23.4-11.25-6.16-11.69-5.4-.6,1,1-.43.56.32s-13.28-3.55-13.56-3.08c-.73,1.27,7.54,2.7,6.82,4-.12.22-3.87-1.93-4-1.68-.32.55,6.75,2.76,6.26,3.62-.4.7-21.78-6.67-22.45-5.51s3.4,1.13,3,1.76c-.18.31-6.48,1.87-6.71,2.27-.52.91,2.65.43,2.18,1.26-.21.36-8-4.72-8.19-4.42-.69,1.21,4.73,1.47,4.19,2.42-.07.12-3-.38-3.09-.2-.55.95,5.65,1.82,5,2.91-.29.5-15.07-5.83-15.47-5.14s4.68,1.56,4.19,2.42-16.95-6-17.42-5.2c-.66,1.14,14.61,7.24,14.08,8.15-.36.62-16.2-4.38-16.69-3.52s3.59.87,3.07,1.78c-.25.44-8-2.53-8.28-2.12-.72,1.24.92-.91.3.17-.35.61-18.9-6.23-19.27-5.59-.59,1,11.66,5.56,11.14,6.45-.16.27-7.23-2.94-7.45-2.55-.37.65,4.59,1.71,4.19,2.42-.69,1.21-19.39-7.85-20.09-6.63s9.9,4.5,9.37,5.43c-.33.58-14.3-5.1-14.75-4.32-.62,1.07,18.16,9.19,17.59,10.19-.79,1.37-25.3-8.54-25.81-7.64-.61,1.07,9.6,4.31,9.07,5.25-.37.65-19.34-5.88-20-4.7-.55,1,4.63,1.65,4.19,2.42-.1.17-4.72-.62-4.83-.44-.69,1.19,8.33,3.9,7.93,4.59-.78,1.36-21.27-7.37-21.91-6.24-.46.8,8.28,3.29,7.63,4.42-.28.49-12.67-5.36-13.1-4.61C30.53,275,37,276.42,36.65,277c-.05.09-3-1-3-.88-.52.9,2.06.08,1.58.91-.27.48-16.86-4.14-17.34-3.3s4.64,1.47,4.12,2.38c-.14.25-4.71-2.43-4.85-2.19-.56,1,4.44,1,3.77,2.19-.5.88-14.58-5.31-14.84-4.87-.56,1,17.41,8.85,16.88,9.77s-16.8-8.5-17.24-7.73c-.32.55,13.77,7,13.35,7.73-.27.47-12.93-5.76-13.27-5.17-.23.41,9.05,4.94,8.92,5.17-.23.4-7.29-4.22-7.48-3.9s2.78,1.4,2.68,1.55-3.11-.9-3.21-.72,5,2.72,4.95,2.86" fill="none" stroke="#999" stroke-linecap="round" stroke-linejoin="round" stroke-width="1.31"/><path d="M12.68,276.25c-5.83.09-5.78-2.68,1-2.73-11.13-2.27-10.83-4-3.64-3.95-2.74-.29,483.88,0,477.3.09,6,0,6.34,1.68,5,3.6,6.79.3,5.81,2.92,3,3.29-2.94,2.15,2.65,3.82-9.71,3.9,8.1-.1-477,0-476.41,0C3.67,280.26.07,278.69,12.68,276.25Z" fill="none" stroke="#666" stroke-width="3.27"/><path d="M3.35,276.41c1.07,0,15.84-3-.15-2.95,5.24-2.22,16.78-3.87,14.1-4-11,.16,467.14.11,469.48,0,5.49,0,12.49,1.71,5,4-.67,0-4.31,2.82,1.09,3,2.06,2,2.7,3.69-8.53,4,12-.31-473.77-.2-484.79-.16C4.33,280.25,14.25,278.49,3.35,276.41Z" fill="none" stroke="#4c4c4c" stroke-width="2.45"/><path d="M59.68,228c-.11.19,1.35.56,1.25.73-.2.36-6.36,2.31-6.53,2.6-.81,1.41,6.65,2.8,6.19,3.59-.15.26-6.17-1.31-6.35-1-.83,1.45,35,17.72,33.91,19.64-.62,1.08-34-14-34.75-12.66-1.23,2.13,21.07,10.15,20.18,11.69-.52.91-17.39-8.83-18.06-7.67s24.06,11.75,23.12,13.39c-.85,1.48-26-16.3-26.87-14.76-.68,1.18,15.54,6.35,14.39,8.34-.74,1.29-25-8.32-25.58-7.32s21.36,10.81,20.69,12c-.37.64-15.05-8.12-15.34-7.61-.63,1.09,15.12,7.85,14.73,8.53s-12.82-4.57-13-4.21c-.38.65,7.19,3,6.69,3.88-.17.3-10-4.9-10.16-4.57-.53.92,1.32-.3.86.5-.24.41-7.39-3.94-7.55-3.67-.44.77,7.75,3.58,7.36,4.26-.26.46-12.8-2.9-13.21-2.18-.23.4,13.47,7.09,13.16,7.62s-12.87-2.44-13.12-2c0,0,3.49,2,3.48,2" fill="none" stroke="#999" stroke-linecap="round" stroke-linejoin="round" stroke-width="1.31"/><path d="M108.61,227.92c-.12.21,7,3.78,6.87,4s-6,.9-6.21,1.19c-.41.71,4.49,1.27,3.91,2.27-.33.56-13.44-6.76-13.93-5.92s11.77,4.78,10.89,6.31c-.18.31-4,3.29-4.18,3.56-1,1.76,23,10.11,21.62,12.52-.53.92-19.76-7.12-20.09-6.53-.67,1.17,17.06,7.26,15.93,9.22-.68,1.18-23.3-10.81-24.07-9.47-.61,1.05,10.61,4,9.69,5.61-.71,1.23-19.6-6.27-20.12-5.36s8.26,2.85,7.43,4.3c-.24.42-9.15,1.22-9.38,1.62-.7,1.21,12.33,5.64,11.68,6.76-.32.55-12-6.6-12.2-6.21-.4.69,4.78,1.31,4.15,2.41" fill="none" stroke="#999" stroke-linecap="round" stroke-linejoin="round" stroke-width="1.31"/><path d="M157.74,227.92c-.13.23,7,3.76,6.87,4s-4.09.53-4.22.74c-.42.73.59-.29.32.18,0,.07.55,1.86.52,1.92-.45.79,9,3.83,8.39,4.86-.3.52-10.66-2.1-10.84-1.78C157,240.93,182.5,249.48,181.6,251c-.54.94-21.72-6.09-22.12-5.39-1.49,2.59,10.07,2.74,8.73,5.06-.5.87-17.15-10.75-17.77-9.68-.72,1.26,15.44,6.72,14.48,8.39-.5.87-22.95-9.86-23.67-8.6-1.16,2,20.81,10.45,20.11,11.65-.57,1-17.91-6.47-18.52-5.41s20.58,10,19.77,11.45c-.24.42-11.14-6.87-11.36-6.48-.56,1,5.73,2.25,5.27,3.05-.18.32-7.62-3.46-7.87-3-.62,1.08,8.25,3.18,7.56,4.38s-18.66-10.85-19.29-9.76,14.43,6.77,13.75,8c-.54.93-16.64-4.59-17-3.95-.47.81,6,2.21,5.46,3.16" fill="none" stroke="#999" stroke-linecap="round" stroke-linejoin="round" stroke-width="1.31"/><path d="M206.87,227.92c-.15.25,7,3.73,6.87,4s-4.39-1.29-4.53-1c-.38.67.49-.43.18.1,0,.06-2.1-.23-2.14-.15-.38.66,5.4,2.33,5.06,2.93-.12.21-5.34-.39-5.47-.16-.6,1,6.09,2.21,5.52,3.2-.32.56-13.2-6.09-13.48-5.6-.92,1.6,21.75,10.35,20.78,12-.44.76-17.33-7.14-17.93-6.11-.83,1.44,37,19.22,36,20.87-1.29,2.24-43-24.67-44.56-21.89-1.25,2.17,34.41,17.11,33.19,19.22s-30.7-15.72-31.36-14.58S227.62,257.2,226.58,259c-.86,1.49-23.42-8.61-23.88-7.82-.68,1.17,14.14,6.5,13.41,7.76-.62,1.08-23.27-9-23.65-8.31-.57,1,6.8,2.31,6.1,3.53-.18.31-6.56-2.43-6.73-2.14-.33.56,5.82,2.18,5.31,3.07-.14.25-8.68-1.5-8.83-1.24-.71,1.23,2.6.72,2.26,1.31" fill="none" stroke="#999" stroke-linecap="round" stroke-linejoin="round" stroke-width="1.31"/><path d="M256,227.92c-.16.28,7,3.71,6.88,4s-4.08,4.62-4.31,5c-.46.8,9.53,3.42,8.62,5-.08.14-4.7-2.47-4.83-2.24-.79,1.38,1.4-.26.94.54-.06.1-3-.46-3.13-.28-1,1.74,18.24,6.48,16.48,9.54-.68,1.18-29.45-14.13-30.14-12.94-1.45,2.53,29.07,14.88,28.23,16.35-.64,1.1-24.67-16.06-25.62-14.41-.76,1.32,32.23,17,31.51,18.25-1.4,2.43-38.31-21.07-39-19.86-1,1.71,37.43,20.16,36.78,21.3s-33.94-20.23-35-18.42,18.13,8.3,17.18,9.95c-.19.34-6.41.39-6.54.61-.8,1.4,5.7.89,4.66,2.7-.41.72-13.14-6.61-13.46-6.07-.75,1.3,13.46,5.46,12.45,7.21-.1.17-5.35-1.23-5.46-1-.73,1.28,4.79,1.56,4.27,2.47s-25-9.69-25.83-8.2c-.52.91,16.3,8.18,15.75,9.12s-16-8.55-16.57-7.55c-.46.8,3.09.48,2.52,1.46,0,.09,1.47,1.27,1.41,1.36-.38.66,4.74,1.26,4.1,2.37" fill="none" stroke="#999" stroke-linecap="round" stroke-linejoin="round" stroke-width="1.31"/><path d="M305.15,227.92c-.08.14,7,3.85,6.88,4-.33.57-13.4-2.38-13.63-2-.53.92,18.49,9.51,18,10.41s-13.43-1.18-13.85-.47c-1.47,2.56,20.44,8.49,19,11-1.12,1.95-28.93-18.36-29.64-17.12-1.5,2.61,43.81,23,42.79,24.78-.82,1.43-38.66-17.81-39.63-16.12-1.11,1.92,29.31,15.09,28.5,16.5-.66,1.16-29.16-15.34-30.26-13.44-.51.89,18.33,8.27,17.32,10-.49.84-23.56-13.33-24.09-12.42s14.74,6.94,14.05,8.14c-.3.52-11.84-7.86-12.32-7s11,4.94,10.41,6c-.38.66-13.8-5.92-14.1-5.39-.67,1.17,21.31,11.22,20.82,12.06-.58,1-17.54-5.75-18-4.87s4,1.57,3.68,2.13-9.07-3.78-9.42-3.18,9.51,3.86,8.8,5.1" fill="none" stroke="#999" stroke-linecap="round" stroke-linejoin="round" stroke-width="1.31"/><path d="M354.28,227.92c-.09.16,7,3.82,6.88,4s-5.71.74-5.82.94c-.56,1,11.28,5.12,10.67,6.18s-18.28-5.09-18.94-3.94c-1.72,3,41.08,21,39.86,23.08-1.41,2.45-44.68-23.18-46.14-20.64-1,1.76,36.16,18,34.9,20.21-.57,1-27.89-16.36-28.67-15-1.09,1.9,22.29,10.61,21.3,12.33-.51.89-23-15.27-24-13.64-.62,1.07,23.21,10.87,22.1,12.8-.77,1.33-27.15-17.09-27.88-15.81-1.29,2.24,28.19,13.54,27,15.63-.78,1.35-28.22-12-28.87-10.83-.79,1.37,13.49,6.52,12.93,7.49-.31.54-13.32-7.29-13.64-6.73-.8,1.39,12.75,5.66,12,7-.52.91-13.4-7-13.9-6.12-.63,1.09,15.11,7.64,14.63,8.47-.08.13-3.07.82-3.17,1-.66,1.15,4.54,1.1,3.88,2.25s-16.93-5.44-17.33-4.76c-.59,1,4.61,1.39,4.06,2.35" fill="none" stroke="#999" stroke-linecap="round" stroke-linejoin="round" stroke-width="1.31"/><path d="M403.41,227.92c-.11.18,7,3.81,6.9,4-.22.39-11.85-4.8-12.13-4.31-.53.92,16.51,8.85,16.2,9.38-.19.33-5.69,2.92-5.81,3.13-.91,1.58,27.8,13.85,26.83,15.54-1.08,1.87-41.32-21.16-42.11-19.79s37.27,19.61,36.41,21.09c-.55.95-29.82-15.37-30.69-13.85-1.07,1.86,15.27,6.11,14.09,8.16-.39.67-20.35-9.72-21.14-8.35-.55,1,18.27,8.54,17.39,10.07s-25.42-9.74-26.14-8.48,21.91,11.54,21.41,12.4c-.77,1.34-23.64-11.28-24.39-10-.35.61,7.74,3.69,7.4,4.29-.2.34-11.77-3.2-12-2.73-.62,1.08,11.6,5.11,10.91,6.32" fill="none" stroke="#999" stroke-linecap="round" stroke-linejoin="round" stroke-width="1.31"/><path d="M471.89,247c0,.06,4,2.25,4,2.32-.14.24-4.91-2.83-5-2.58-.05.09,5.12,2.8,5,2.92" fill="none" stroke="#999" stroke-linecap="round" stroke-linejoin="round" stroke-width="1.31"/><path d="M452.58,227.93c-.13.23,7,3.75,6.9,4s-5.81,3.23-6,3.56c-.67,1.16,3.66,1.09,3.22,1.86-.31.53-12-2.28-12.3-1.69-.9,1.57,18.14,8.16,17.13,9.92-.59,1-15.33-8.6-15.91-7.59-.88,1.53,25.5,11.58,24.13,14-.59,1-15.32-9.06-15.85-8.15-.9,1.57,13.14,6.16,12.51,7.24-.92,1.59-24.4-11.46-24.85-10.69-1.38,2.4,18.2,8.93,17.5,10.13-.57,1-23.33-11.26-24.21-9.74-.6,1.05,22,10,20.8,12-.11.19-5.64-2.94-5.79-2.68-.55,1,4.62.4,3.64,2.11-.47.81-16-6.39-16.4-5.65-.91,1.58,11.39,4.85,10.64,6.16-.38.66-15.15-3.93-15.65-3.07s7,2.75,6.43,3.73c-.3.52-13.68-5.39-13.91-5-.48.83,17.21,8.33,16.5,9.55" fill="none" stroke="#999" stroke-linecap="round" stroke-linejoin="round" stroke-width="1.31"/><path d="M38.92,243.12h435.2" fill="none" stroke="#666" stroke-width="3.27"/><path d="M475.67,258.6c4.63.26-444.44-.46-438.53-1.06-3.33.84-2.37-8.83-3-9.59,5.35.2.78-4.41,10.07-9.47.76-4.95,7.59-10.61,19.62-10.24-5.4-1-.86,4.61,11.39,10.73.86,4.86,3.63,8.73,12.93,9.63-.82-.25-2.81-5.52,2.61-9.71,3-5.36,8.85-11.44,20.47-11.24,1.61,0,2.8,6,8.74,11.3,1.65,5.21,2.61,9.45,16.83,9.07,2.36.72,5.05-4.53,6.26-9.6,2.45-4.59,6.6-11.2,16.47-10.86-1.09-.34,9.42,5.64,9.72,11.29,5.84,4.26,7.66,9.86,11.72,9.6,7.93.31,5.52-5.12,10.93-9.67,6.43-6,6.27-10.46,14.15-11.08,1.47,0,5.47,5.6,15.9,11.12.67,5.21,4.69,10,11.63,8.76,1.88.51,6.2-3.55,9.78-8.42,1.19-6.24,5.6-10.9,6.73-10.88,10.75-.39,13.32,4.54,15.24,10.9,6.07,4.16,3.58,9.64,10.57,8.82,7.9-.22,15.65-3.95,12.12-9.75,1.58-5.38,4.7-10,16.09-10.3,6.28.23,12.43,5.61,8.38,10.87,8.57,4.24,12.61,9.95,11,9.74,8.17-.63,17.82-4.52,12.12-9.74,11.46-6,7-11.43,19.17-10.89,8.49-.58,11.51,4.8,8.47,10.75,10.71,4.33,13.05,9.1,8.2,9.31,14.85-.08,17.57-4.39,19.6-8.86,2.22-6.31,3-11.4,7.69-11.2,8.16-.6,14.12,5.88,14.19,11.36,9.4,4.77,13.41,8.83,9.66,9.45,8.57-.75,15.22-5.55,11-9.67,6.45-5.39,15-11.4,12.26-10.91,11.35,0,19.7,5.14,18.36,10.33.79,4.33,6,9.55,10.05,9C478.55,248.57,474.86,258.08,475.67,258.6Z" fill="none" stroke="#666" stroke-width="3.27"/><path d="M35.62,243.12H473.48" fill="none" stroke="#4c4c4c" stroke-width="2.45"/><path d="M469.57,258.59c4.17-.49-436.55-.41-440.69-.08.35-.66,7.31-10.38-2.14-10.47,5.67,0,23.5-4.19,17.76-9.51-1.59-4.9,9.07-10.32,18.66-10.55,11.52.17,6,5.2.22,10.88,3.58,4.66,7.93,9.4,8.35,9.21,10.6.24,26.3-4.75,21.07-9.44,10.55-5.44,16.69-10.76,19.39-10.56,5.06.25,11.3,5.27,3.72,10.31,12.24,4.9,5.83,10,11.31,9.64,5,.27,8.81-4.4,20.17-9.59-1.69-4.85,7.06-10,9-10.91-.8.68,3.76,6.14,13.26,11.38,11.12,4.92,12.44,9,9.83,9.35-.57-.25,17.46-4.74,17.27-9.62,1.78-5.12,7.48-10.81,13-11,5.64.75,1.75,5.82,7.8,11.14-3.57,4.82,1.67,9.37,14.06,9.27,9.22-.18-1.45-4.42,9.17-9.14,9.24-5.71,14.83-10.81,6-11.14,5.82.38,22.76,5.72,18.52,10.65-2.08,5.32,7.28,9.45,7.66,10.13,11.09-.14,14.53-5,17.8-9.83-5.9-5.23-2.25-10.56,18.45-10.68-3.46-.11-3.63,5.33,7.8,10.69,8.69,4.78.25,9.18,9.6,9.28,6.68.36,14.32-4.62,13.92-9.44,5.08-5.09,5.92-10.7,11-10.61.14.47,16.3,5.57,15.91,10.74,4.06,4.86-2,9.71,11.26,9.84-3.1-.39,14-5.11,19-10-11-5-6.08-10.5-1.28-10.63,3.1.26,21.5,5.91,22.18,10.83-3.72,5.11-4.57,9.37,2.51,9.66,9.83-.3,9.72-5,11.38-9.62,6-5.37,1.83-10.77,15.38-10.79,1.73.32,12.42,5.84,20.16,10.46-.18,4.69,2.35,9.61,15.23,9.69C463.53,248.21,477.75,258,469.57,258.59Z" fill="none" stroke="#4c4c4c" stroke-width="2.45"/></svg>