<svg id="Layer_1" data-name="Layer 1" xmlns="http://www.w3.org/2000/svg" viewBox="0 0 512 512"><defs><style>.cls-1{fill:#727272;}</style></defs><title>gift-handdrawn</title><path class="cls-1" d="M472.69,392.18l-1.19-71.82c-.11-6.47-.58-13-.38-19.42.57-18.37-1.48-36.1-3.33-53.89l44.2-.59-.29-26-.3-15c-.11-5.83-.58-11.68-.38-17.48.62-17.76-1.8-34.85-3.74-52.05a19.35,19.35,0,0,0-1.21-4.93c-.39-1-1.3-2-1.89-1.86s-1.39,1.43-1.66,2.52c-1.55,6.44-1.2,13.15-1.1,19.93.15,9.84-.1,19.71-.35,29.56-.12,4.59-1,8.85-3.41,11.72s-2.78,7.4-2.74,12l.29,24.82h-2.81l-42.86.48c-15.27.13-30.54,0-45.8-.95-3.54-.22-7.18.07-10.77.14-13,.25-26,.86-39,.7-12-.14-23.92-.34-35.88-.5,0-1.76,0-3.53,0-5.28A111.79,111.79,0,0,1,319.44,206a13.45,13.45,0,0,0-.16-5.73c-1.65-5.43-.94-10.83-.08-16.24a24.33,24.33,0,0,0,.5-4.78l-1.19-23a41.76,41.76,0,0,1-.38-6.21,30.78,30.78,0,0,0-1.61-11.74h5.41l49.85-.06c5.38,0,10.78.62,16.14.51l83.46-1.91A74.49,74.49,0,0,0,501.08,130c-1.49-.79-2.32-1.6-3.37-1.71-4.84-.53-9.72-1.15-14.61-1.22l-48.5-.28-6.74.18c-21.55.12-43.12.53-64.65.22-11.29-.16-22.56-.46-33.86-.34a74.39,74.39,0,0,0,12.48-7.38c2.92-2,5.92-4.06,8-7,1.69-2.43,3.67-4.65,5.24-7.16a35.86,35.86,0,0,0,4.9-9.48,35.34,35.34,0,0,1,3.37-8.35,4.81,4.81,0,0,0,.56-2.09,65.45,65.45,0,0,0-.72-13.64c-.24-2.47-1-4.89-.18-7.51,1.37-5.55-.11-11-1.66-16.3-1.33-4.41-4.4-8-7.82-10.93l-10-8.26c-4.54-4-9.38-8.1-15.12-11a16,16,0,0,0-3.64-1.66c-5.73-2-11.77-2.21-17.76-3-10.19-1.06-19.72,3.73-28.34,8.08-5.9,3.09-9.57,8.65-15.31,11.95-.56.34-.66,1.18-1,1.73a13.45,13.45,0,0,1-1.91,2.94A36.81,36.81,0,0,0,253,46.16a36.67,36.67,0,0,0-2.47-3.79c-2.7-3.37-6.29-5.65-6.78-11.23,0-.45-.43-.68-.7-1A43.18,43.18,0,0,0,236.34,24c-8.68-5.82-18.85-10.42-29.57-10.61a61.93,61.93,0,0,0-9.24.26c-9.51,1-18.38,4.22-27.31,7.75-5,1.88-9.06,5.54-12.86,9.18-.62.53-1.08,1.22-1.67,1.79a64.29,64.29,0,0,0-15.76,24.81,45.45,45.45,0,0,0-2.09,8.9c-.27,1.93-.35,4,4.05,5.17,1.78.48,2,1.2,2,2a16.11,16.11,0,0,0,.1,3.34,18.15,18.15,0,0,1-.88,10.21c-.58,1.33-.12,2.61.07,3.89a41.49,41.49,0,0,0,1.1,4.13,60.76,60.76,0,0,0,9.07,20.55,12.22,12.22,0,0,0,1.32,1.51,65.77,65.77,0,0,0,11,9.89l.21.19c-3.32.08-6.65.19-10,.24-9.4.13-19.12.37-28.17-.85-19-2.56-38.32-2.92-57.53-4-15.7-.91-31.39-.35-47.11.3l-20.33.52.33,21.78q.07,7.87-.08,15.73c-.23,10.78-.65,21.54-1.13,32.3L.44,226,0,244.38l5.37.06,36.87.17,2.88,0-.07.83-.69,8.35c-.41,5.32-.73,10.65-1,16l-1.48,32c-.91,17.45-.35,34.87.3,52.34.63,16.9,1.09,33.92.77,50.83-.46,23.95-1.7,47.84-2.6,71.75l-.44,20.38,6,.06,40,.17c11.24.06,22.46.18,33.66.57,27,.94,54,0,80.93-.46l30.13,0c3.23,0,6.47.62,9.69.51l41.47-1.59c7.27,0,14.54.18,21.81.73,2.38.18,4.92-.31,7.39-.42,4.41-.2,8.88-.7,13.22-.46,30.84,1.73,61.8,2.24,92.73,2,7.42-.06,14.81,0,22.19.17l32.83.69.53-23.26a129.89,129.89,0,0,0-.16-17.91c-1.65-17-.94-33.83-.08-50.76C472.45,402.15,472.76,397.15,472.69,392.18ZM299.76,246.06a10.19,10.19,0,0,1,.19,1.16l.14,3.9a94.4,94.4,0,0,1-.7,15.59c-.18,1.28.31,2.65.42,4,.2,2.38.7,4.8.46,7.14a422.6,422.6,0,0,0-2,50.07c.16,10.29-.55,20.46-1.38,30.67a38,38,0,0,0,.16,9.67c1.65,9.16.94,18.27.08,27.41a68.22,68.22,0,0,0-.5,8.07l1.19,38.78c.11,3.5.58,7,.38,10.48-.57,9.83,1.44,19.31,3.27,28.82a91.42,91.42,0,0,1-10.63-1.76,23.62,23.62,0,0,0-4.44-.25c-11.47-.25-22.93-.66-34.4-.7-16.08-.05-32.15-.21-48.23-.35,0-.41,0-.83,0-1.24l.11-9.94c0-8.09.43-16.19.14-24.26a111.61,111.61,0,0,1,.83-20.17,26,26,0,0,0,.21-4.81c-.45-10.23-1.12-20.46-1.36-30.7-.13-5.64-.36-11.47.86-16.9,2.56-11.41,2.92-23,4-34.52.91-9.42.35-18.83-.3-28.27a264.32,264.32,0,0,1-.77-27.45c.23-6.47.65-12.92,1.13-19.38l.75-9.68.37-4.52.35-1.3.37-1.05,3.11,0c3.6.06,7.19.18,10.77.57a103.7,103.7,0,0,0,17.55.05c9.33.5,18.64.33,28,0l13.86-.51c5.27.19,10.54.37,15.81.48ZM206.52,135c.89.13,1.78.22,2.66.37.1.06.22.09.32.15a4.78,4.78,0,0,0,2.36.78,4.28,4.28,0,0,0,1,0h.61l1.32,0,27.3,1.93c.8.06,1.6,0,2.4,0l17.72-.06c1.91,0,3.83.62,5.74.51l18.32-1.18,22.28.56c.07,3.16-.12,6.32-.35,9.48-.12,1.63-1,3.15-3.41,4.17A3.91,3.91,0,0,0,302,156c.11,4.31.31,8.62.3,12.93,0,10.86,1.46,21.72-.47,32.58a17,17,0,0,0,.14,3.83c.25,4.63.86,9.26.7,13.88l-.15,4.07-.17,2.37,0,.46-24.4-.27c-9.52-.12-19-.15-28.55.06-6.8-.17-13.61-.27-20.41,0l-11,.31-4.06.14a4.1,4.1,0,0,0-.93.07l-.46.06-.28,0h-1.66a9.33,9.33,0,0,1,.18-2l.13-.49c.05-.09.11-1.3.17-1.9l.49-4.44c.83-6.24.48-12.45.45-18.67l0-2.88,1.16-34.51c.11-3.51.2-7,.12-10.54-.05-2.25-.24-4.56-4.64-5.59-1.81-.42-2.11-1.33-2.14-2.34a24.06,24.06,0,0,0-.2-3.63A8,8,0,0,1,206.52,135Zm54.95-69c1.62-6.07,4.67-11.46,7.81-16.75,1.71-2.78,3.15-6.63,8.13-6,.39.05.57-.22.8-.39,1.74-1.38,3.82-2.24,5.57-3.51,6.39-3.93,13.61-5.82,20.88-6.82a37.07,37.07,0,0,1,6.48-.33c6.64,0,13.74,1.52,18.72,6.24,2.75,2.46,5.67,4.43,8.34,6.87a8.06,8.06,0,0,1,1.17,1.17,43,43,0,0,1,8.83,17.36c.35,1.95.87,3.83,1.14,5.78.26,1.25.63,2.44,5,2.74,1.81.12,2.14.7,2.2,1.36l.29,2.81a8.41,8.41,0,0,1-2.67,8,6.77,6.77,0,0,0-1.41,2.71c-.43,1-.4,2.14-.93,3.1a43.36,43.36,0,0,1-9.52,13.46l-.94,1.06a39.81,39.81,0,0,1-7.71,7.06c-.89.72-2.23.72-3.11,1.41a43.06,43.06,0,0,1-15.94,7.64c-2.1.63-3.78,2.69-5.75,6.16-3.73,0-7.47,0-11.2,0q-6.55-.15-13.11-.21a11.11,11.11,0,0,0-1.33.1c-9.59-.09-19.18-.18-28.76-.1a9.33,9.33,0,0,0,.14-3.39,46.48,46.48,0,0,1,.35-7.5c.12-1.16,1-2.24,3.41-3s2.78-1.88,2.74-3.05c-.11-3.08-.31-6.15-.3-9.23,0-7.75-1.46-15.51.47-23.26a10,10,0,0,0-.08-2.59A28.93,28.93,0,0,1,261.47,66Zm-69.93,59.89c-1.89-.55-3.82-1-5.66-1.61-.51-.2-1.08-.22-1.6-.4-5-1.65-9.91-3.85-13.87-7.39-2.51-2.17-4.49-4.78-7-7a25.66,25.66,0,0,1-4.94-6.51,94.22,94.22,0,0,1-4.26-8.84,13.93,13.93,0,0,1-1.54-8,4.7,4.7,0,0,0-.09-1.93A40.92,40.92,0,0,1,150.7,72a10,10,0,0,1,1.78-6.63c3.52-3.86,5.29-7.77,8.27-11.07,2.44-2.61,3.82-5.69,5.63-8.77a20.7,20.7,0,0,1,7-7.54A33.81,33.81,0,0,1,187,33.61c1-.19,1.93-.23,2.87-.37a30.57,30.57,0,0,1,12.65-.88c6.71,1.42,13.9,1,20.19,4.56,3.86,2.31,9.11,3.6,11.11,8.33.17.46.85.49,1.26.77.7.51,1.74.78,2,1.64,2.37,5.77,4.45,11,6.26,16.47a19.71,19.71,0,0,1,.21,10.45,6.75,6.75,0,0,0,.24,3.74c1.65,3.87.94,7.73.08,11.6a12.57,12.57,0,0,0-.5,3.41l1.19,16.41a21.43,21.43,0,0,1,.38,4.44c-.59,4.31,1.59,8.47,3.48,12.65a308.11,308.11,0,0,1-33.36-.83,72.1,72.1,0,0,0-8-.21l-4.08.12a18.61,18.61,0,0,0-2.16-.12l-2.31.15V126l-5.14.15C192.8,126.06,192.17,125.95,191.54,125.85ZM17.66,226.71l.19-16.2q.23-12.51.79-25c.41-8.77.53-17.53.55-26.28l-.1-19.43,0-.46a2.28,2.28,0,0,1,.47,0l90.57,1.16c9.88.11,19.77.2,29.65.12,6.34-.05,12.83-.24,15.72-4.64,1.18-1.81,3.75-2.1,6.59-2.13,4,0,8.1,0,12.13-.2,1.63-.07,3.24-.08,4.86-.12a65.79,65.79,0,0,0,14.09,2.64c1.87.23,3.64-.64,5.27-2.1l.65,0,.7,11.28c.13,3.34.36,6.8-.86,10-2.56,6.76-2.92,13.63-4,20.46-.91,5.58-.35,11.16.3,16.75a93.15,93.15,0,0,1,.77,16.27c-.32,5.95-1.05,9.94-1.77,17.5-.8,0-1.59,0-2.39,0-35.44-.13-70.87-.91-106.32-.38l-31,.31Zm116.23,252L99.45,479l-41.87.44.19-19q.23-13.9.79-27.78c.83-19.5.48-38.91.45-58.36l0-9,1.16-107.84.1-10.46h.05v0l4.68-.13a36.17,36.17,0,0,0,4.92-.56,16.39,16.39,0,0,0,3.69-1.16c33,1.2,65.8-.95,98.71-.7,6.85.05,13.7-.13,20.54-.34l-.09,6.41c-.15,5-.4,10-.79,15-.83,10.53-.48,21-.45,31.51l0,4.85-1.16,58.23c-.11,5.93-.2,11.86-.12,17.79.05,3.81.24,7.7,4.64,9.43,1.81.71,2.11,2.25,2.14,4,0,2.43,0,4.86.2,7.28a61.34,61.34,0,0,1-1.88,21.65,34.72,34.72,0,0,0-.78,8l-.06,8.88-1,23L193,471.69,192.8,478l0,.72C173.15,478.54,153.53,478.47,133.89,478.74Zm327.29-185.4c-.12,5.1-1,9.83-3.41,13S455,314.59,455,319.73l.3,40.39c0,33.93,1.46,67.89-.47,101.8-.22,3.93.07,8,.14,12l.07,3.23.08,1.73.18,3.63-3.51.18-5.13.14-14.46.06c-30.44-.33-60.82-1-91.31-.57-10.93.15-22.17.75-33.2.08a57.28,57.28,0,0,0,.09-7.53c-.15-5.9.1-11.83.35-17.73a8.6,8.6,0,0,1,3.41-7c2.51-1.8,2.78-4.44,2.74-7.22L314,421c0-18.32-1.46-36.66.47-55a48.21,48.21,0,0,0-.14-6.46c-.25-7.81-.86-15.62-.7-23.42.33-16.43,1-32.84.57-49.31-.22-8.95-1.57-18.28,2.21-27a7,7,0,0,0,.24-2.4l.43-9.29.07-2.73q11.5.08,23,0c17.15-.16,34.1.55,51.12,1.38a105.2,105.2,0,0,0,16.12-.16c15.27-1.65,30.45-.94,45.68-.08,2.83.16,5.67.31,8.52.4-.23,4.45-.13,9-.06,13.53C461.69,271.44,461.43,282.4,461.18,293.34Z"/></svg>